<?xml version="1.0" encoding="UTF-8"?>
<svg version="1.1" xmlns="http://www.w3.org/2000/svg" width="1672" height="941">
<path d="M0 0 C2.78922555 0.00465361 5.57801735 -0.00239104 8.3671875 -0.02050781 C23.67566124 -0.11899864 38.46861612 0.09455364 53.48803711 3.31567383 C55.53823559 3.66923115 57.59019038 4.01286124 59.64428711 4.34301758 C83.5314869 8.38209434 106.65661122 14.26077258 129.80053711 21.44067383 C130.50944092 21.65771973 131.21834473 21.87476562 131.94873047 22.09838867 C173.45828866 35.25770896 212.46292121 59.25287811 245.78393555 86.91577148 C248.0047814 88.74017408 250.27771414 90.49417387 252.55053711 92.25317383 C265.16794221 102.31730977 277.27600259 114.01778263 287.73803711 126.29614258 C288.93695507 127.67971531 290.16827176 129.03568026 291.42553711 130.36645508 C298.67337971 138.08061108 304.74696195 146.61580118 310.93725586 155.18334961 C312.17525895 156.88560386 313.43710221 158.57051166 314.70678711 160.24926758 C327.38259739 177.03397399 337.27370367 195.77263488 346.95727539 214.38452148 C347.90062912 216.19088591 348.85937074 217.98942692 349.84301758 219.77416992 C352.54506672 224.78400259 352.54506672 224.78400259 352.265625 227.38916016 C350.98075191 230.57249879 348.37410103 231.66649445 345.48803711 233.31567383 C344.82803711 233.31567383 344.16803711 233.31567383 343.48803711 233.31567383 C342.97756836 232.36821289 342.97756836 232.36821289 342.45678711 231.40161133 C340.81234059 228.36638292 339.15206779 225.34021028 337.48803711 222.31567383 C336.90795898 221.25477539 336.32788086 220.19387695 335.73022461 219.10083008 C325.91285019 201.49938683 314.28715067 184.87222657 301.48803711 169.31567383 C300.6772168 168.32954102 299.86639648 167.3434082 299.03100586 166.32739258 C287.82963422 152.83947373 275.91385733 139.5802346 262.59741211 128.14770508 C260.31174165 126.16255795 258.09102333 124.11527553 255.86303711 122.06567383 C227.49181649 96.54019874 191.45195056 71.69669332 155.36645508 59.01074219 C153.43288778 58.295267 151.60920981 57.45116237 149.74584961 56.56958008 C142.87150395 53.49345923 135.69562072 51.23154098 128.55053711 48.87817383 C127.81172302 48.63411804 127.07290894 48.39006226 126.31170654 48.13861084 C100.87046494 39.74776183 75.38095977 34.16498195 48.78735352 30.62426758 C47.30398646 30.42518328 45.82173863 30.21747928 44.34106445 29.99926758 C-47.2568412 16.68206574 -146.39784227 48.94184038 -223.82055664 105.53442383 C-225.05200857 106.4602008 -226.28248706 107.38727411 -227.51196289 108.31567383 C-228.10895996 108.76555664 -228.70595703 109.21543945 -229.32104492 109.67895508 C-237.65961814 115.99833244 -245.42719833 122.75283167 -253.03198242 129.93286133 C-255.2186297 131.9759445 -257.45979064 133.95606566 -259.69946289 135.94067383 C-267.55311333 143.00641759 -274.72075605 150.36024361 -281.31274414 158.62036133 C-283.38029701 161.15430712 -285.53477043 163.54715188 -287.76196289 165.94067383 C-340.52560102 224.09955398 -370.89003687 301.96983081 -380.12646484 379.09790039 C-380.40099664 381.38943241 -380.71172972 383.6767506 -381.046875 385.96020508 C-381.72593259 391.41388259 -381.69304952 396.87378191 -381.71508789 402.36254883 C-381.72560936 404.09717125 -381.72560936 404.09717125 -381.73634338 405.86683655 C-381.75383772 409.59982188 -381.76019982 413.33264895 -381.76196289 417.06567383 C-381.76263763 418.3354306 -381.76331238 419.60518738 -381.76400757 420.91342163 C-381.74874914 438.92307237 -381.46687726 456.51638646 -378.51196289 474.31567383 C-378.2625293 475.91475586 -378.2625293 475.91475586 -378.00805664 477.54614258 C-374.03874194 502.62633104 -368.10249104 527.76531231 -358.51196289 551.31567383 C-357.94348633 552.75620117 -357.94348633 552.75620117 -357.36352539 554.22583008 C-356.73564012 555.81061251 -356.09836576 557.39172435 -355.44946289 558.96801758 C-354.76763295 560.6754334 -354.12712676 562.3995287 -353.51196289 564.13208008 C-350.14089845 573.48444289 -345.63452723 582.06513864 -340.88989258 590.78344727 C-339.5077552 593.32340632 -338.13838452 595.86996739 -336.76977539 598.41723633 C-318.26624131 632.67258105 -294.67305832 662.17340866 -267.26196289 689.69067383 C-266.78992432 690.16548187 -266.31788574 690.64028992 -265.83154297 691.12948608 C-260.23692524 696.74806753 -254.57924337 702.20915231 -248.51196289 707.31567383 C-247.90868164 707.82565918 -247.30540039 708.33564453 -246.68383789 708.86108398 C-213.4934143 736.66518615 -174.68412588 761.11074792 -133.37719727 774.68481445 C-130.42938626 775.68182278 -127.53603079 776.81099009 -124.63696289 777.94067383 C-123.59024414 778.34543945 -122.54352539 778.75020508 -121.46508789 779.16723633 C-119.61898219 779.88516632 -117.77487287 780.60827623 -115.93383789 781.33911133 C-110.03584466 783.6006118 -104.05002697 785.32683077 -97.94946289 786.94067383 C-97.17006348 787.14692383 -96.39066406 787.35317383 -95.58764648 787.56567383 C-90.74215315 788.81691 -85.8823602 789.8784956 -80.97021484 790.83325195 C-78.64191951 791.29017037 -76.32321429 791.77909836 -74.00415039 792.28051758 C-64.79907653 794.23813525 -55.60040556 795.82488953 -46.26196289 797.00317383 C-45.32980957 797.12233154 -44.39765625 797.24148926 -43.43725586 797.36425781 C-29.42824788 799.04645619 -15.36069727 799.57880838 -1.26196289 799.62817383 C-0.4812442 799.63145691 0.29947449 799.63473999 1.10385132 799.63812256 C13.59592803 799.65483395 25.89241622 798.86601777 38.30053711 797.44067383 C39.06329956 797.3536319 39.82606201 797.26658997 40.61193848 797.1769104 C49.6967221 796.18331713 49.6967221 796.18331713 58.62475586 794.30786133 C62.16088255 793.39969532 65.50931774 792.88770912 69.12475586 792.42504883 C76.39905199 791.42891503 83.27042738 789.65116328 90.30053711 787.56567383 C91.52828857 787.20642822 92.75604004 786.84718262 94.02099609 786.47705078 C143.77012006 771.76002545 189.60996423 748.61087247 229.48803711 715.31567383 C230.2955542 714.64568359 230.2955542 714.64568359 231.11938477 713.9621582 C236.96354991 709.10963865 242.74156252 704.26947297 248.01538086 698.78833008 C249.48803711 697.31567383 249.48803711 697.31567383 252.48803711 694.87817383 C255.43442633 692.36146637 257.80661669 689.75269361 260.30834961 686.81176758 C262.55419233 684.23991543 264.87160215 681.75179062 267.21069336 679.26513672 C272.94607352 673.1631299 278.41037937 666.98369229 283.48803711 660.31567383 C283.91375 659.76782227 284.33946289 659.2199707 284.77807617 658.65551758 C297.72605905 641.99140063 308.79214213 624.29072219 319.05932617 605.87182617 C320.47909065 603.33168022 321.91519388 600.80140695 323.35522461 598.27270508 C324.25415287 596.68313876 325.15261263 595.09330738 326.05053711 593.50317383 C326.45618896 592.79273926 326.86184082 592.08230469 327.27978516 591.3503418 C329.82856209 586.79620948 331.73966983 582.22512001 333.48803711 577.31567383 C334.288229 575.33149896 335.09978805 573.35184944 335.92553711 571.37817383 C336.31612305 570.44102539 336.70670898 569.50387695 337.10913086 568.53833008 C337.85412667 566.79719256 338.60578596 565.05854232 339.39428711 563.33666992 C355.11288439 528.917565 362.60681878 489.77151209 365.48803711 452.31567383 C247.01803711 452.31567383 128.54803711 452.31567383 6.48803711 452.31567383 C6.48803711 446.37567383 6.48803711 440.43567383 6.48803711 434.31567383 C178.41803711 434.31567383 350.34803711 434.31567383 527.48803711 434.31567383 C527.48803711 440.25567383 527.48803711 446.19567383 527.48803711 452.31567383 C481.61803711 452.31567383 435.74803711 452.31567383 388.48803711 452.31567383 C388.48803711 457.26567383 388.48803711 462.21567383 388.48803711 467.31567383 C387.92429714 472.03399032 387.28681611 476.64133744 386.48803711 481.31567383 C386.27161847 482.63618734 386.05598499 483.95682973 385.84106445 485.27758789 C380.6688186 516.73811206 373.60888158 547.70587801 361.48803711 577.31567383 C361.17817871 578.07525391 360.86832031 578.83483398 360.54907227 579.61743164 C346.24015285 614.40421979 329.01549654 648.76656116 305.48803711 678.31567383 C304.59718057 679.46943922 303.70795779 680.62446728 302.82006836 681.78051758 C298.01393338 688.01007523 293.09623014 694.05483491 287.75366211 699.83911133 C285.91822605 701.84543282 284.14457307 703.88131357 282.37475586 705.94458008 C277.83076103 711.15091168 272.94543006 716.00415462 268.05053711 720.87817383 C267.14754883 721.7850293 266.24456055 722.69188477 265.31420898 723.6262207 C260.20201066 728.73101541 255.01408565 733.66158846 249.48803711 738.31567383 C248.88451416 738.82590088 248.28099121 739.33612793 247.65917969 739.86181641 C212.17087892 769.58856559 172.53354319 791.61547664 129.48803711 808.31567383 C128.73329102 808.6136084 127.97854492 808.91154297 127.20092773 809.21850586 C105.33620553 817.79759389 81.84917787 822.86130364 58.6315918 825.96191406 C56.31153514 826.28699019 56.31153514 826.28699019 53.48803711 827.31567383 C35.76309882 830.23109218 17.84241076 830.619237 -0.07446289 830.62817383 C-1.03212555 830.63148712 -1.98978821 830.63480042 -2.97647095 830.63821411 C-16.6021346 830.6660701 -29.97377148 829.82138949 -43.51196289 828.31567383 C-44.63256104 828.20070557 -45.75315918 828.0857373 -46.90771484 827.96728516 C-97.48573983 822.71692561 -146.66513129 807.75680122 -191.73950195 784.23657227 C-193.4763968 783.33415252 -195.22457998 782.45356635 -196.97290039 781.57348633 C-221.46867759 768.97411307 -244.66596747 753.1593138 -265.89819336 735.64135742 C-267.39536697 734.41145534 -268.90813825 733.2006076 -270.42211914 731.99145508 C-276.65638826 726.99506961 -282.53686864 721.69172163 -288.36743164 716.23754883 C-291.1612892 713.62665788 -294.01637615 711.09213864 -296.88696289 708.56567383 C-300.51073775 705.3224246 -303.7336144 701.92772145 -306.86743164 698.21411133 C-308.50718111 696.32119389 -310.22377812 694.56817421 -312.01196289 692.81567383 C-315.72309283 689.14541536 -319.14888124 685.3066136 -322.51196289 681.31567383 C-322.94718262 680.80488281 -323.38240234 680.2940918 -323.83081055 679.76782227 C-365.1005692 631.12201453 -395.24429192 570.59954125 -408.01196289 508.06567383 C-408.21990479 507.05045654 -408.42784668 506.03523926 -408.64208984 504.98925781 C-410.1464395 497.47669991 -411.49045139 489.94372481 -412.69946289 482.37817383 C-412.85415039 481.44134766 -413.00883789 480.50452148 -413.16821289 479.53930664 C-416.2291896 459.51652639 -416.86373263 439.30070567 -416.82763672 419.07763672 C-416.8244678 415.38389747 -416.84809764 411.69095631 -416.87329102 407.99731445 C-416.93115435 385.82305461 -414.59607321 364.09600514 -410.51196289 342.31567383 C-410.36114258 341.50404785 -410.21032227 340.69242187 -410.05493164 339.85620117 C-407.99434542 328.87687848 -405.65110293 318.04326725 -402.51196289 307.31567383 C-402.23288086 306.34114258 -401.95379883 305.36661133 -401.66625977 304.36254883 C-387.19419439 254.20064668 -364.16519568 207.89682812 -332.51196289 166.31567383 C-332.05724609 165.71674316 -331.6025293 165.1178125 -331.1340332 164.50073242 C-325.70735647 157.38605163 -320.10149567 150.55824174 -313.99633789 144.01098633 C-312.09783513 141.95128993 -310.26966747 139.86822331 -308.44946289 137.74145508 C-303.96331291 132.59820613 -299.15802544 127.77568274 -294.33422852 122.95263672 C-292.77335962 121.38958649 -291.22068401 119.81870018 -289.66821289 118.24731445 C-283.27295402 111.8166653 -276.61436125 105.97021431 -269.51196289 100.31567383 C-268.41011232 99.38092071 -267.31376981 98.43957253 -266.22680664 97.48754883 C-252.33272749 85.37175548 -237.09918202 75.1103936 -221.51196289 65.31567383 C-220.81167969 64.8701416 -220.11139648 64.42460938 -219.38989258 63.96557617 C-170.61904857 32.97925347 -116.99780465 14.99295888 -60.51196289 4.31567383 C-58.94768555 4.01016602 -58.94768555 4.01016602 -57.35180664 3.69848633 C-38.38948114 0.23139446 -19.21652528 -0.03486435 0 0 Z " fill="#0C0C0C" transform="translate(838.511962890625,49.684326171875)"/>
<path d="M0 0 C2 1 2 1 2 1 Z M-2 1 C-1.34 1.33 -0.68 1.66 0 2 C-3.625 6.875 -3.625 6.875 -7 8 C-8.70586575 9.62652316 -10.3777546 11.29006566 -12 13 C-12.99 12.67 -13.98 12.34 -15 12 C-10.71 8.37 -6.42 4.74 -2 1 Z " fill="#242424" transform="translate(1077,758)"/>
<path d="M0 0 C3.68069887 1.53643852 5.98775204 3.78150945 8.75 6.625 C9.54921875 7.44226563 10.3484375 8.25953125 11.171875 9.1015625 C12.07679688 10.04128906 12.07679688 10.04128906 13 11 C12.01 11.33 11.02 11.66 10 12 C8.32737283 10.38113585 6.66204463 8.7547271 5 7.125 C4.071875 6.22007812 3.14375 5.31515625 2.1875 4.3828125 C0 2 0 2 0 0 Z " fill="#2E2D2E" transform="translate(560,730)"/>
<path d="M0 0 C0.66 0.33 1.32 0.66 2 1 C0.21479439 3.00611734 -1.57758712 5.0048717 -3.375 7 C-3.88289062 7.57234375 -4.39078125 8.1446875 -4.9140625 8.734375 C-6.23504905 10.19441277 -7.61400799 11.60152157 -9 13 C-9.66 13 -10.32 13 -11 13 C-9.46356148 9.31930113 -7.21849055 7.01224796 -4.375 4.25 C-3.55773437 3.45078125 -2.74046875 2.6515625 -1.8984375 1.828125 C-0.95871094 0.92320312 -0.95871094 0.92320312 0 0 Z " fill="#1C1C1C" transform="translate(558,159)"/>
<path d="M0 0 C0.66 0.99 1.32 1.98 2 3 C-0.97 6.3 -3.94 9.6 -7 13 C-7.66 12.34 -8.32 11.68 -9 11 C-8.43410156 10.37351562 -7.86820313 9.74703125 -7.28515625 9.1015625 C-6.18494141 7.87566406 -6.18494141 7.87566406 -5.0625 6.625 C-4.33160156 5.81289063 -3.60070313 5.00078125 -2.84765625 4.1640625 C-0.97010529 2.14075833 -0.97010529 2.14075833 0 0 Z " fill="#1D1D1D" transform="translate(1119,713)"/>
<path d="M0 0 C0 0.66 0 1.32 0 2 C-1.50197356 3.24076077 -3.00612315 4.47921817 -4.53125 5.69140625 C-6.28660135 7.25534961 -7.18614864 8.80260134 -8 11 C-8.99 11 -9.98 11 -11 11 C-9.60249952 7.84164893 -7.94801766 5.67727175 -5.5 3.25 C-4.8915625 2.63640625 -4.283125 2.0228125 -3.65625 1.390625 C-2 0 -2 0 0 0 Z " fill="#242425" transform="translate(539,180)"/>
<path d="M0 0 C0.66 0.66 1.32 1.32 2 2 C-0.64 4.64 -3.28 7.28 -6 10 C-6.66 9.34 -7.32 8.68 -8 8 C-5.36 5.36 -2.72 2.72 0 0 Z " fill="#131314" transform="translate(546,171)"/>
<path d="M0 0 C0.99 0.33 1.98 0.66 3 1 C2.34 3.97 1.68 6.94 1 10 C0.01 10 -0.98 10 -2 10 C-1.34 6.7 -0.68 3.4 0 0 Z " fill="#1F2020" transform="translate(1192,571)"/>
<path d="M0 0 C0.66 0.99 1.32 1.98 2 3 C0.35 4.98 -1.3 6.96 -3 9 C-3.99 8.67 -4.98 8.34 -6 8 C-4.02 5.36 -2.04 2.72 0 0 Z " fill="#232424" transform="translate(516,203)"/>
<path d="M0 0 C0.66 0.33 1.32 0.66 2 1 C1.1875 4.4375 1.1875 4.4375 0 8 C-0.99 8.33 -1.98 8.66 -3 9 C-2.69181644 7.68647977 -2.37832335 6.37420428 -2.0625 5.0625 C-1.88847656 4.33160156 -1.71445313 3.60070312 -1.53515625 2.84765625 C-1 1 -1 1 0 0 Z " fill="#1A1A1A" transform="translate(1186,594)"/>
<path d="M0 0 C0 0.66 0 1.32 0 2 C-6.96428571 5.34821429 -6.96428571 5.34821429 -11 4 C-9.73308493 3.32591692 -8.46129251 2.66099503 -7.1875 2 C-6.47980469 1.62875 -5.77210938 1.2575 -5.04296875 0.875 C-3 0 -3 0 0 0 Z " fill="#2A292A" transform="translate(669,88)"/>
<path d="M0 0 C4.02550319 1.3418344 4.88285636 3.4227573 7 7 C7 7.66 7 8.32 7 9 C2.97449681 7.6581656 2.11714364 5.5772427 0 2 C0 1.34 0 0.68 0 0 Z " fill="#242324" transform="translate(1150,208)"/>
<path d="M0 0 C-0.99 0 -1.98 0 -3 0 C-3 0.66 -3 1.32 -3 2 C-4.32 2 -5.64 2 -7 2 C-7 2.66 -7 3.32 -7 4 C-8.65 3.67 -10.3 3.34 -12 3 C-4.82142857 -1.78571429 -4.82142857 -1.78571429 0 0 Z " fill="#2A2B2B" transform="translate(949,833)"/>
<path d="M0 0 C1 3 1 3 -0.1875 5.5 C-1.94150569 7.9193182 -3.51794573 9.37382651 -6 11 C-4.54955729 6.89041233 -2.48889248 3.56741255 0 0 Z " fill="#D6D5D6" transform="translate(1166,694)"/>
<path d="M0 0 C0.66 0.33 1.32 0.66 2 1 C1.1875 4.4375 1.1875 4.4375 0 8 C-0.99 8.33 -1.98 8.66 -3 9 C-2.01 6.03 -1.02 3.06 0 0 Z " fill="#D0CFD0" transform="translate(487,316)"/>
<path d="M0 0 C-3.8503105 2.56687367 -5.58569763 1.83288724 -10 1 C-6.42181037 -1.33958553 -4.07775191 -0.9267618 0 0 Z " fill="#202020" transform="translate(932,839)"/>
<path d="M0 0 C0.6875 1.6875 0.6875 1.6875 1 4 C-0.3125 6.75 -0.3125 6.75 -2 9 C-2.66 9 -3.32 9 -4 9 C-2.80100302 5.9168649 -1.52299523 2.93720508 0 0 Z " fill="#2F2F2F" transform="translate(1164,644)"/>
<path d="M0 0 C-1 3 -1 3 -2.8125 4.25 C-5.33943414 5.11637742 -6.52221994 4.88492145 -9 4 C-2.25 0 -2.25 0 0 0 Z " fill="#2C2C2D" transform="translate(642,101)"/>
<path d="M0 0 C3.3 0 6.6 0 10 0 C9.67 0.99 9.34 1.98 9 3 C4.545 2.01 4.545 2.01 0 1 C0 0.67 0 0.34 0 0 Z " fill="#DFE0E0" transform="translate(814,78)"/>
<path d="M0 0 C0 0.99 0 1.98 0 3 C-3.63 2.67 -7.26 2.34 -11 2 C-11 1.67 -11 1.34 -11 1 C-7.27569643 0.30710631 -3.78916254 -0.11144596 0 0 Z " fill="#292929" transform="translate(789,53)"/>
<path d="M0 0 C0.99 0.33 1.98 0.66 3 1 C3 1.66 3 2.32 3 3 C3.99 2.67 4.98 2.34 6 2 C6.33 2.99 6.66 3.98 7 5 C3.7 4.01 0.4 3.02 -3 2 C-2.01 1.34 -1.02 0.68 0 0 Z " fill="#353635" transform="translate(684,848)"/>
<path d="M0 0 C2 1 2 1 2 1 Z M-2 1 C-1.34 1.33 -0.68 1.66 0 2 C-1.28062485 3.7074998 -2.61767557 5.37373596 -4 7 C-4.66 7 -5.32 7 -6 7 C-4.84826645 4.53199953 -3.95216435 2.95216435 -2 1 Z " fill="#19191A" transform="translate(1077,758)"/>
</svg>
