<?xml version="1.0" encoding="UTF-8"?>
<svg version="1.1" xmlns="http://www.w3.org/2000/svg" width="1024" height="1024">
<path d="M0 0 C0.91507324 0.16097168 1.83014648 0.32194336 2.77294922 0.48779297 C23.59586845 4.33049088 43.44675587 11.84936548 62 22 C62.61020996 22.3285498 63.22041992 22.65709961 63.84912109 22.99560547 C72.01904946 27.41370608 79.62859183 32.34553473 87 38 C87.76828125 38.57492187 88.5365625 39.14984375 89.328125 39.7421875 C94.31402306 43.52519407 98.97762406 47.59208113 103.59375 51.81640625 C105.71359488 53.74009665 107.87455149 55.59250374 110.0625 57.4375 C123.33457918 69.1232749 137.37501684 86.54170596 144.375 102.875 C144.69210937 103.59429687 145.00921875 104.31359375 145.3359375 105.0546875 C146 107 146 107 146 110 C142.8125 110.8125 142.8125 110.8125 139 111 C135.32347049 107.86346076 132.76284597 104.37341396 130.1875 100.3125 C122.52134755 88.58357388 113.4929376 77.55899641 102.7578125 68.5078125 C101 67 101 67 98.625 64.5625 C85.95756396 52.19666958 57.61953465 30 39 30 C39 29.34 39 28.68 39 28 C37.88625 27.690625 36.7725 27.38125 35.625 27.0625 C32 26 32 26 30 25 C29.67 25.66 29.34 26.32 29 27 C29 26.01 29 25.02 29 24 C28.16855469 23.93941406 27.33710937 23.87882812 26.48046875 23.81640625 C25.39378906 23.73261719 24.30710937 23.64882813 23.1875 23.5625 C22.10855469 23.48128906 21.02960938 23.40007812 19.91796875 23.31640625 C17 23 17 23 14 22 C13.01 22.33 12.02 22.66 11 23 C10.34 22.01 9.68 21.02 9 20 C7.15282899 19.32934462 7.15282899 19.32934462 5 19.0859375 C4.19433594 18.96476562 3.38867188 18.84359375 2.55859375 18.71875 C1.71425781 18.6053125 0.86992188 18.491875 0 18.375 C-0.81339844 18.25382812 -1.62679687 18.13265625 -2.46484375 18.0078125 C-4.97366104 17.64318187 -7.48434653 17.31384798 -10 17 C-10.78858398 16.90066162 -11.57716797 16.80132324 -12.38964844 16.69897461 C-19.34145148 15.91002252 -26.2582846 15.80766512 -33.25 15.8125 C-34.46985596 15.81330566 -35.68971191 15.81411133 -36.9465332 15.81494141 C-44.72682131 15.86667812 -52.43864348 16.17184308 -60.1875 16.875 C-61.05213867 16.95339111 -61.91677734 17.03178223 -62.80761719 17.11254883 C-67.63799741 17.60744928 -72.27463223 18.42173576 -76.9855957 19.60205078 C-79 20 -79 20 -83 20 C-83.33 20.66 -83.66 21.32 -84 22 C-85.59250601 22.22594901 -87.18631416 22.44436016 -88.78369141 22.6328125 C-93.38595221 23.39529325 -97.77535662 25.01870486 -102.1875 26.5 C-103.24179199 26.85384766 -104.29608398 27.20769531 -105.38232422 27.57226562 C-130.08570626 36.05813186 -152.32612609 48.27300707 -171.91430664 65.59692383 C-175.79799107 69 -175.79799107 69 -178 69 C-178 69.66 -178 70.32 -178 71 C-180.375 73.625 -180.375 73.625 -183 76 C-183.66 76 -184.32 76 -185 76 C-185.2578125 76.58007812 -185.515625 77.16015625 -185.78125 77.7578125 C-187.10378606 80.19093974 -188.59500053 81.86850466 -190.5 83.875 C-220.87189056 117.53626499 -235.01024577 162.84034503 -235.25 207.5625 C-235.25926514 208.66384277 -235.26853027 209.76518555 -235.27807617 210.89990234 C-235.27396729 211.92422363 -235.2698584 212.94854492 -235.265625 214.00390625 C-235.26336914 214.91986572 -235.26111328 215.8358252 -235.25878906 216.77954102 C-235.20888321 219.20478028 -235.20888321 219.20478028 -233 221 C-233.66 221 -234.32 221 -235 221 C-232.17735391 241.35903173 -228.19968898 261.0511389 -220 280 C-219.58693604 280.95737061 -219.58693604 280.95737061 -219.16552734 281.93408203 C-203.24412163 318.39590744 -175.46772302 348.25675553 -141 368 C-139.87722656 368.65484375 -138.75445312 369.3096875 -137.59765625 369.984375 C-114.80234591 382.93226191 -88.90893387 389.97470533 -63 393 C-61.89301758 393.14356934 -61.89301758 393.14356934 -60.76367188 393.29003906 C-53.55620433 394.14062844 -46.35683889 394.15239541 -39.11083984 394.13037109 C-36.97616709 394.12493936 -34.84169822 394.13038443 -32.70703125 394.13671875 C-31.3463537 394.13605912 -29.98567628 394.13478035 -28.625 394.1328125 C-27.40039062 394.13168457 -26.17578125 394.13055664 -24.9140625 394.12939453 C-22.06251969 394.2008835 -22.06251969 394.2008835 -20 393 C-17.75106046 392.89176227 -15.50062425 392.81430355 -13.25 392.75 C4.71424219 391.86221421 27.34577919 387.16960456 43 378 C43.66 377.01 44.32 376.02 45 375 C45.99 375.33 46.98 375.66 48 376 C50.50216331 374.99247838 52.80298936 373.92736595 55.1875 372.6875 C56.24674683 372.14488525 56.24674683 372.14488525 57.32739258 371.59130859 C100.45301717 349.08973644 132.27567577 311.93876296 147.1875 265.5 C151.12392799 252.83338812 153.43493162 240.14657439 155 227 C154.34 227 153.68 227 153 227 C153 225.35 153 223.7 153 222 C152.34 222 151.68 222 151 222 C151 221.34 151 220.68 151 220 C150.1646875 220.2165625 150.1646875 220.2165625 149.3125 220.4375 C148.549375 220.623125 147.78625 220.80875 147 221 C146.154375 221.226875 145.30875 221.45375 144.4375 221.6875 C142 222 142 222 139 220 C134.85223727 219.71337567 134.85223727 219.71337567 131 221 C131 220.34 131 219.68 131 219 C129.35 219 127.7 219 126 219 C125.67 219.99 125.34 220.98 125 222 C125 221.34 125 220.68 125 220 C122.69 219.67 120.38 219.34 118 219 C118 219.99 118 220.98 118 222 C117.34 221.67 116.68 221.34 116 221 C116.33 220.34 116.66 219.68 117 219 C116.34 219.66 115.68 220.32 115 221 C113.68 221 112.36 221 111 221 C110.67 221.66 110.34 222.32 110 223 C109.01 222.67 108.02 222.34 107 222 C107 221.34 107 220.68 107 220 C106.4225 220.144375 105.845 220.28875 105.25 220.4375 C104.5075 220.623125 103.765 220.80875 103 221 C102.34 221.226875 101.68 221.45375 101 221.6875 C98.41083122 222.09205762 97.19739621 221.33413341 95 220 C94.67 220.66 94.34 221.32 94 222 C93.4337793 221.67402832 92.86755859 221.34805664 92.28417969 221.01220703 C89.78049023 219.90272686 88.17342082 219.76792675 85.453125 219.8046875 C84.60878906 219.81113281 83.76445313 219.81757813 82.89453125 219.82421875 C81.58548828 219.84935547 81.58548828 219.84935547 80.25 219.875 C79.36183594 219.88402344 78.47367188 219.89304687 77.55859375 219.90234375 C75.37211942 219.92585423 73.18619906 219.95871501 71 220 C70.67 220.66 70.34 221.32 70 222 C66.26706206 221.49748912 62.65064917 220.91266229 59 220 C58.01 220 57.02 220 56 220 C55.34 220 54.68 220 54 220 C53.67 220.99 53.34 221.98 53 223 C48.13103697 222.40380045 43.67209049 221.43023178 39 220 C38.67 220.66 38.34 221.32 38 222 C34.7 222 31.4 222 28 222 C27.67 221.34 27.34 220.68 27 220 C25.515 220.99 25.515 220.99 24 222 C22.02734375 221.9765625 22.02734375 221.9765625 19.9375 221.625 C16.33525393 220.94774415 16.33525393 220.94774415 14 221 C13.01 221 12.02 221 11 221 C10.67 220.34 10.34 219.68 10 219 C8.68 219 7.36 219 6 219 C5.67 219.99 5.34 220.98 5 222 C3.906875 221.835 2.81375 221.67 1.6875 221.5 C-2.43790914 220.94062249 -6.07157055 221.07237097 -10.1875 221.5 C-11.08855469 221.5928125 -11.98960937 221.685625 -12.91796875 221.78125 C-13.60503906 221.8534375 -14.29210937 221.925625 -15 222 C-15.33 221.34 -15.66 220.68 -16 220 C-16.66 220.33 -17.32 220.66 -18 221 C-18.66 221.33 -19.32 221.66 -20 222 C-20 221.01 -20 220.02 -20 219 C-20.33 219.66 -20.66 220.32 -21 221 C-24.0625 221.625 -24.0625 221.625 -27 222 C-27 221.34 -27 220.68 -27 220 C-35.415 219.505 -35.415 219.505 -44 219 C-44 214.38 -44 209.76 -44 205 C63.91 204.67 171.82 204.34 283 204 C283.66 205.65 284.32 207.3 285 209 C285.33 209.66 285.66 210.32 286 211 C285.34 211 284.68 211 284 211 C284.9977758 213.99332739 285.7522025 214.94766315 288 217 C287.01 217.33 286.02 217.66 285 218 C284.67 218.99 284.34 219.98 284 221 C283.34 221 282.68 221 282 221 C281.67 220.67 281.34 220.34 281 220 C279.515 220.99 279.515 220.99 278 222 C277.34 222 276.68 222 276 222 C276 221.01 276 220.02 276 219 C273.45749979 219.11474466 270.91652662 219.2414697 268.375 219.375 C267.30572266 219.42140625 267.30572266 219.42140625 266.21484375 219.46875 C262.73145627 219.6604961 260.05133899 219.98174341 256.7265625 221.1640625 C254 222 254 222 252.0625 221.13671875 C251.381875 220.76160156 250.70125 220.38648438 250 220 C246.62773759 219.72042326 246.62773759 219.72042326 243 219.8125 C241.783125 219.81894531 240.56625 219.82539063 239.3125 219.83203125 C236.66936856 219.96605796 234.50654477 220.21670476 232 221 C232 220.34 232 219.68 232 219 C231.34 219.33 230.68 219.66 230 220 C230.33 220.66 230.66 221.32 231 222 C229.68 221.67 228.36 221.34 227 221 C227 220.67 227 220.34 227 220 C225.35 220 223.7 220 222 220 C222 220.66 222 221.32 222 222 C217.44615385 222.36923077 217.44615385 222.36923077 215.1875 220.5 C214.795625 220.005 214.40375 219.51 214 219 C213.67 219.99 213.34 220.98 213 222 C213 221.01 213 220.02 213 219 C212.34 219.66 211.68 220.32 211 221 C208.34462628 221.56520003 205.70855287 221.73788198 203 222 C203 221.34 203 220.68 203 220 C198.71 219.67 194.42 219.34 190 219 C190 219.99 190 220.98 190 222 C188.35 222 186.7 222 185 222 C184.67 221.34 184.34 220.68 184 220 C181.41394668 219.5316735 181.41394668 219.5316735 178.4375 219.375 C177.42558594 219.30023438 176.41367187 219.22546875 175.37109375 219.1484375 C174.19740234 219.07496094 174.19740234 219.07496094 173 219 C173.04640625 219.86496094 173.0928125 220.72992188 173.140625 221.62109375 C173.51484442 234.67867835 171.45874078 247.20205345 169 260 C168.86110352 260.72574219 168.72220703 261.45148438 168.57910156 262.19921875 C161.68558986 296.22825871 140.7254278 328.26281016 117 353 C116.49065918 353.53657227 115.98131836 354.07314453 115.45654297 354.62597656 C107.86701901 362.58714644 99.97943722 369.64440754 91 376 C90.42556152 376.40814941 89.85112305 376.81629883 89.25927734 377.23681641 C65.22373276 394.14680838 39.37127319 404.58971278 11 412 C10.30535645 412.18288574 9.61071289 412.36577148 8.89501953 412.55419922 C-20.32306997 419.98720755 -53.43897945 418.09647101 -83 414 C-83 413.34 -83 412.68 -83 412 C-85.97 411.67 -88.94 411.34 -92 411 C-92.33 411.99 -92.66 412.98 -93 414 C-93.66 414 -94.32 414 -95 414 C-94.67 413.01 -94.34 412.02 -94 411 C-96.70407915 410.12975626 -99.41187337 409.2786585 -102.125 408.4375 C-102.88554687 408.19064453 -103.64609375 407.94378906 -104.4296875 407.68945312 C-109.00250057 406.29001464 -112.24313523 405.73099614 -117 407 C-117.99 405.515 -117.99 405.515 -119 404 C-118.01 403.67 -117.02 403.34 -116 403 C-116.5554248 402.89333008 -117.11084961 402.78666016 -117.68310547 402.67675781 C-123.12520039 401.56048966 -128.05906301 400.01969979 -133.125 397.75 C-134.25748169 397.24315674 -134.25748169 397.24315674 -135.4128418 396.72607422 C-150.02470797 389.93404116 -163.98902356 381.1664808 -176.4765625 370.98828125 C-178.890946 369.08592645 -181.36225685 367.5675477 -184 366 C-185.70884005 364.37660195 -187.37446717 362.70680947 -189 361 C-191.548601 358.42980069 -194.11710694 355.88742299 -196.7265625 353.37890625 C-202.78954634 347.515801 -208.25396684 341.45055198 -213.34619141 334.72094727 C-215.71979779 331.58468729 -218.13869277 328.70234572 -221 326 C-221.66 326.33 -222.32 326.66 -223 327 C-222.80003418 326.40993164 -222.60006836 325.81986328 -222.39404297 325.21191406 C-221.72992307 321.48395476 -224.1783058 318.7787333 -226.125 315.75 C-226.54080322 315.08266846 -226.95660645 314.41533691 -227.38500977 313.7277832 C-228.20897616 312.407862 -229.03803793 311.09110575 -229.87255859 309.77783203 C-231.25512086 307.59770677 -232.59384168 305.39174915 -233.9375 303.1875 C-235.8086592 300.05165474 -235.8086592 300.05165474 -238 298 C-238.33379597 296.00007716 -238.6670551 294.0000647 -239 292 C-239.83936822 289.91388289 -240.74093335 287.85221449 -241.6875 285.8125 C-244.28173065 279.92679996 -246.43178927 274.00593244 -248.375 267.875 C-248.63756592 267.05749268 -248.90013184 266.23998535 -249.1706543 265.39770508 C-249.53090698 264.23791138 -249.53090698 264.23791138 -249.8984375 263.0546875 C-250.11161621 262.36874512 -250.32479492 261.68280273 -250.54443359 260.97607422 C-251 259 -251 259 -251 255 C-251.66 254.67 -252.32 254.34 -253 254 C-253.8947816 251.30395871 -254.19292092 248.63264648 -254.4375 245.8125 C-254.70724581 242.77133352 -255.03466173 239.7789648 -255.5078125 236.76171875 C-258.8823755 213.87647809 -258.12031724 189.71079619 -254 167 C-254.33 167 -254.66 167 -255 167 C-255 165.02 -255 163.04 -255 161 C-254.01 161.33 -253.02 161.66 -252 162 C-251.88785156 161.10474609 -251.88785156 161.10474609 -251.7734375 160.19140625 C-247.71363208 133.40465088 -232.88720646 106.54197486 -217 85 C-216.42894531 84.21625 -215.85789062 83.4325 -215.26953125 82.625 C-210.30142509 76.01659275 -204.67913181 69.99409907 -199 64 C-198.12214844 63.06800781 -197.24429688 62.13601563 -196.33984375 61.17578125 C-185.399098 49.8805489 -172.82033395 40.89732173 -159.78222656 32.19433594 C-158.24905332 31.16689984 -156.72868273 30.12040514 -155.2109375 29.0703125 C-145.04463938 22.24032274 -127.50632994 11 -115 11 C-114.67 10.34 -114.34 9.68 -114 9 C-111.69482422 8.25390625 -111.69482422 8.25390625 -108.6796875 7.5625 C-107.58881836 7.30597656 -106.49794922 7.04945313 -105.37402344 6.78515625 C-104.2605957 6.52605469 -103.14716797 6.26695312 -102 6 C-100.04319761 5.50421679 -98.08742904 5.00433199 -96.1328125 4.5 C-64.19233556 -3.55767525 -32.6037022 -5.74085122 0 0 Z M17 219 C21 220 21 220 21 220 Z M22 219 C26 220 26 220 26 220 Z M30 219 C31 221 31 221 31 221 Z M32 219 C36 220 36 220 36 220 Z M109 219 C109.66 219.66 110.32 220.32 111 221 C111 220.34 111 219.68 111 219 C110.34 219 109.68 219 109 219 Z M142 219 C142.33 219.66 142.66 220.32 143 221 C143.33 220.34 143.66 219.68 144 219 C143.34 219 142.68 219 142 219 Z M154 221 C154.66 222.32 155.32 223.64 156 225 C156 223.68 156 222.36 156 221 C155.34 221 154.68 221 154 221 Z " fill="#1F1F20" transform="translate(535,257)"/>
<path d="M0 0 C0.91507324 0.16097168 1.83014648 0.32194336 2.77294922 0.48779297 C23.59586845 4.33049088 43.44675587 11.84936548 62 22 C62.61020996 22.3285498 63.22041992 22.65709961 63.84912109 22.99560547 C72.01904946 27.41370608 79.62859183 32.34553473 87 38 C87.76828125 38.57492187 88.5365625 39.14984375 89.328125 39.7421875 C94.31402306 43.52519407 98.97762406 47.59208113 103.59375 51.81640625 C105.71359488 53.74009665 107.87455149 55.59250374 110.0625 57.4375 C123.33457918 69.1232749 137.37501684 86.54170596 144.375 102.875 C144.69210937 103.59429687 145.00921875 104.31359375 145.3359375 105.0546875 C146 107 146 107 146 110 C142.8125 110.8125 142.8125 110.8125 139 111 C135.32347049 107.86346076 132.76284597 104.37341396 130.1875 100.3125 C122.52134755 88.58357388 113.4929376 77.55899641 102.7578125 68.5078125 C101 67 101 67 98.625 64.5625 C85.95756396 52.19666958 57.61953465 30 39 30 C39 29.34 39 28.68 39 28 C37.88625 27.690625 36.7725 27.38125 35.625 27.0625 C32 26 32 26 30 25 C29.67 25.66 29.34 26.32 29 27 C29 26.01 29 25.02 29 24 C28.16855469 23.93941406 27.33710937 23.87882812 26.48046875 23.81640625 C25.39378906 23.73261719 24.30710937 23.64882813 23.1875 23.5625 C22.10855469 23.48128906 21.02960938 23.40007812 19.91796875 23.31640625 C17 23 17 23 14 22 C13.01 22.33 12.02 22.66 11 23 C10.34 22.01 9.68 21.02 9 20 C7.15282899 19.32934462 7.15282899 19.32934462 5 19.0859375 C4.19433594 18.96476562 3.38867188 18.84359375 2.55859375 18.71875 C1.71425781 18.6053125 0.86992188 18.491875 0 18.375 C-0.81339844 18.25382812 -1.62679687 18.13265625 -2.46484375 18.0078125 C-4.97366104 17.64318187 -7.48434653 17.31384798 -10 17 C-10.78858398 16.90066162 -11.57716797 16.80132324 -12.38964844 16.69897461 C-19.34145148 15.91002252 -26.2582846 15.80766512 -33.25 15.8125 C-34.46985596 15.81330566 -35.68971191 15.81411133 -36.9465332 15.81494141 C-44.72682131 15.86667812 -52.43864348 16.17184308 -60.1875 16.875 C-61.05213867 16.95339111 -61.91677734 17.03178223 -62.80761719 17.11254883 C-67.63799741 17.60744928 -72.27463223 18.42173576 -76.9855957 19.60205078 C-79 20 -79 20 -83 20 C-83.33 20.66 -83.66 21.32 -84 22 C-85.59250601 22.22594901 -87.18631416 22.44436016 -88.78369141 22.6328125 C-93.38595221 23.39529325 -97.77535662 25.01870486 -102.1875 26.5 C-103.24179199 26.85384766 -104.29608398 27.20769531 -105.38232422 27.57226562 C-130.08570626 36.05813186 -152.32612609 48.27300707 -171.91430664 65.59692383 C-175.79799107 69 -175.79799107 69 -178 69 C-178 69.66 -178 70.32 -178 71 C-180.375 73.625 -180.375 73.625 -183 76 C-183.66 76 -184.32 76 -185 76 C-185.2578125 76.58007812 -185.515625 77.16015625 -185.78125 77.7578125 C-187.10378606 80.19093974 -188.59500053 81.86850466 -190.5 83.875 C-220.87189056 117.53626499 -235.01024577 162.84034503 -235.25 207.5625 C-235.25926514 208.66384277 -235.26853027 209.76518555 -235.27807617 210.89990234 C-235.27396729 211.92422363 -235.2698584 212.94854492 -235.265625 214.00390625 C-235.26336914 214.91986572 -235.26111328 215.8358252 -235.25878906 216.77954102 C-235.20888321 219.20478028 -235.20888321 219.20478028 -233 221 C-233.66 221 -234.32 221 -235 221 C-232.17735391 241.35903173 -228.19968898 261.0511389 -220 280 C-219.58693604 280.95737061 -219.58693604 280.95737061 -219.16552734 281.93408203 C-203.24412163 318.39590744 -175.46772302 348.25675553 -141 368 C-139.87722656 368.65484375 -138.75445312 369.3096875 -137.59765625 369.984375 C-114.80234591 382.93226191 -88.90893387 389.97470533 -63 393 C-61.89301758 393.14356934 -61.89301758 393.14356934 -60.76367188 393.29003906 C-53.55620433 394.14062844 -46.35683889 394.15239541 -39.11083984 394.13037109 C-36.97616709 394.12493936 -34.84169822 394.13038443 -32.70703125 394.13671875 C-31.3463537 394.13605912 -29.98567628 394.13478035 -28.625 394.1328125 C-27.40039062 394.13168457 -26.17578125 394.13055664 -24.9140625 394.12939453 C-22.06251969 394.2008835 -22.06251969 394.2008835 -20 393 C-17.75106046 392.89176227 -15.50062425 392.81430355 -13.25 392.75 C4.71424219 391.86221421 27.34577919 387.16960456 43 378 C43.66 377.01 44.32 376.02 45 375 C45.99 375.33 46.98 375.66 48 376 C50.50216331 374.99247838 52.80298936 373.92736595 55.1875 372.6875 C56.24674683 372.14488525 56.24674683 372.14488525 57.32739258 371.59130859 C100.45301717 349.08973644 132.27567577 311.93876296 147.1875 265.5 C151.12392799 252.83338812 153.43493162 240.14657439 155 227 C154.34 227 153.68 227 153 227 C153 225.35 153 223.7 153 222 C152.34 222 151.68 222 151 222 C151 221.34 151 220.68 151 220 C150.1646875 220.2165625 150.1646875 220.2165625 149.3125 220.4375 C148.549375 220.623125 147.78625 220.80875 147 221 C146.154375 221.226875 145.30875 221.45375 144.4375 221.6875 C142 222 142 222 139 220 C134.85223727 219.71337567 134.85223727 219.71337567 131 221 C131 220.34 131 219.68 131 219 C129.35 219 127.7 219 126 219 C125.67 219.99 125.34 220.98 125 222 C125 221.34 125 220.68 125 220 C122.69 219.67 120.38 219.34 118 219 C118 219.99 118 220.98 118 222 C117.34 221.67 116.68 221.34 116 221 C116.33 220.34 116.66 219.68 117 219 C116.34 219.66 115.68 220.32 115 221 C113.68 221 112.36 221 111 221 C110.67 221.66 110.34 222.32 110 223 C109.01 222.67 108.02 222.34 107 222 C107 221.34 107 220.68 107 220 C106.4225 220.144375 105.845 220.28875 105.25 220.4375 C104.5075 220.623125 103.765 220.80875 103 221 C102.34 221.226875 101.68 221.45375 101 221.6875 C98.41083122 222.09205762 97.19739621 221.33413341 95 220 C94.67 220.66 94.34 221.32 94 222 C93.4337793 221.67402832 92.86755859 221.34805664 92.28417969 221.01220703 C89.78049023 219.90272686 88.17342082 219.76792675 85.453125 219.8046875 C84.60878906 219.81113281 83.76445313 219.81757813 82.89453125 219.82421875 C81.58548828 219.84935547 81.58548828 219.84935547 80.25 219.875 C79.36183594 219.88402344 78.47367188 219.89304687 77.55859375 219.90234375 C75.37211942 219.92585423 73.18619906 219.95871501 71 220 C70.67 220.66 70.34 221.32 70 222 C66.26706206 221.49748912 62.65064917 220.91266229 59 220 C58.01 220 57.02 220 56 220 C55.34 220 54.68 220 54 220 C53.67 220.99 53.34 221.98 53 223 C48.13103697 222.40380045 43.67209049 221.43023178 39 220 C38.67 220.66 38.34 221.32 38 222 C34.7 222 31.4 222 28 222 C27.67 221.34 27.34 220.68 27 220 C25.515 220.99 25.515 220.99 24 222 C22.02734375 221.9765625 22.02734375 221.9765625 19.9375 221.625 C16.33525393 220.94774415 16.33525393 220.94774415 14 221 C13.01 221 12.02 221 11 221 C10.67 220.34 10.34 219.68 10 219 C8.68 219 7.36 219 6 219 C5.67 219.99 5.34 220.98 5 222 C3.906875 221.835 2.81375 221.67 1.6875 221.5 C-2.43790914 220.94062249 -6.07157055 221.07237097 -10.1875 221.5 C-11.08855469 221.5928125 -11.98960937 221.685625 -12.91796875 221.78125 C-13.60503906 221.8534375 -14.29210937 221.925625 -15 222 C-15.33 221.34 -15.66 220.68 -16 220 C-16.66 220.33 -17.32 220.66 -18 221 C-18.66 221.33 -19.32 221.66 -20 222 C-20 221.01 -20 220.02 -20 219 C-20.33 219.66 -20.66 220.32 -21 221 C-24.0625 221.625 -24.0625 221.625 -27 222 C-27 221.34 -27 220.68 -27 220 C-35.415 219.505 -35.415 219.505 -44 219 C-44 214.38 -44 209.76 -44 205 C63.91 204.67 171.82 204.34 283 204 C283.66 205.65 284.32 207.3 285 209 C285.33 209.66 285.66 210.32 286 211 C285.34 211 284.68 211 284 211 C284.9977758 213.99332739 285.7522025 214.94766315 288 217 C287.01 217.33 286.02 217.66 285 218 C284.67 218.99 284.34 219.98 284 221 C283.34 221 282.68 221 282 221 C281.67 220.67 281.34 220.34 281 220 C279.515 220.99 279.515 220.99 278 222 C277.34 222 276.68 222 276 222 C276 221.01 276 220.02 276 219 C273.45749979 219.11474466 270.91652662 219.2414697 268.375 219.375 C267.30572266 219.42140625 267.30572266 219.42140625 266.21484375 219.46875 C262.73145627 219.6604961 260.05133899 219.98174341 256.7265625 221.1640625 C254 222 254 222 252.0625 221.13671875 C251.381875 220.76160156 250.70125 220.38648438 250 220 C246.62773759 219.72042326 246.62773759 219.72042326 243 219.8125 C241.783125 219.81894531 240.56625 219.82539063 239.3125 219.83203125 C236.66936856 219.96605796 234.50654477 220.21670476 232 221 C232 220.34 232 219.68 232 219 C231.34 219.33 230.68 219.66 230 220 C230.33 220.66 230.66 221.32 231 222 C229.68 221.67 228.36 221.34 227 221 C227 220.67 227 220.34 227 220 C225.35 220 223.7 220 222 220 C222 220.66 222 221.32 222 222 C217.44615385 222.36923077 217.44615385 222.36923077 215.1875 220.5 C214.795625 220.005 214.40375 219.51 214 219 C213.67 219.99 213.34 220.98 213 222 C213 221.01 213 220.02 213 219 C212.34 219.66 211.68 220.32 211 221 C208.34462628 221.56520003 205.70855287 221.73788198 203 222 C203 221.34 203 220.68 203 220 C198.71 219.67 194.42 219.34 190 219 C190 219.99 190 220.98 190 222 C188.35 222 186.7 222 185 222 C184.67 221.34 184.34 220.68 184 220 C181.41394668 219.5316735 181.41394668 219.5316735 178.4375 219.375 C177.42558594 219.30023438 176.41367187 219.22546875 175.37109375 219.1484375 C174.19740234 219.07496094 174.19740234 219.07496094 173 219 C173.04640625 219.86496094 173.0928125 220.72992188 173.140625 221.62109375 C173.51484442 234.67867835 171.45874078 247.20205345 169 260 C168.86110352 260.72574219 168.72220703 261.45148438 168.57910156 262.19921875 C161.68558986 296.22825871 140.7254278 328.26281016 117 353 C116.49065918 353.53657227 115.98131836 354.07314453 115.45654297 354.62597656 C107.86701901 362.58714644 99.97943722 369.64440754 91 376 C90.42556152 376.40814941 89.85112305 376.81629883 89.25927734 377.23681641 C65.22373276 394.14680838 39.37127319 404.58971278 11 412 C10.30535645 412.18288574 9.61071289 412.36577148 8.89501953 412.55419922 C-20.32306997 419.98720755 -53.43897945 418.09647101 -83 414 C-83 413.34 -83 412.68 -83 412 C-85.97 411.67 -88.94 411.34 -92 411 C-92.33 411.99 -92.66 412.98 -93 414 C-93.66 414 -94.32 414 -95 414 C-94.67 413.01 -94.34 412.02 -94 411 C-96.70407915 410.12975626 -99.41187337 409.2786585 -102.125 408.4375 C-102.88554687 408.19064453 -103.64609375 407.94378906 -104.4296875 407.68945312 C-109.00250057 406.29001464 -112.24313523 405.73099614 -117 407 C-117.99 405.515 -117.99 405.515 -119 404 C-118.01 403.67 -117.02 403.34 -116 403 C-116.5554248 402.89333008 -117.11084961 402.78666016 -117.68310547 402.67675781 C-123.12520039 401.56048966 -128.05906301 400.01969979 -133.125 397.75 C-134.25748169 397.24315674 -134.25748169 397.24315674 -135.4128418 396.72607422 C-150.02470797 389.93404116 -163.98902356 381.1664808 -176.4765625 370.98828125 C-178.890946 369.08592645 -181.36225685 367.5675477 -184 366 C-185.70884005 364.37660195 -187.37446717 362.70680947 -189 361 C-191.548601 358.42980069 -194.11710694 355.88742299 -196.7265625 353.37890625 C-202.78954634 347.515801 -208.25396684 341.45055198 -213.34619141 334.72094727 C-215.71979779 331.58468729 -218.13869277 328.70234572 -221 326 C-221.66 326.33 -222.32 326.66 -223 327 C-222.80003418 326.40993164 -222.60006836 325.81986328 -222.39404297 325.21191406 C-221.72992307 321.48395476 -224.1783058 318.7787333 -226.125 315.75 C-226.54080322 315.08266846 -226.95660645 314.41533691 -227.38500977 313.7277832 C-228.20897616 312.407862 -229.03803793 311.09110575 -229.87255859 309.77783203 C-231.25512086 307.59770677 -232.59384168 305.39174915 -233.9375 303.1875 C-235.8086592 300.05165474 -235.8086592 300.05165474 -238 298 C-238.33379597 296.00007716 -238.6670551 294.0000647 -239 292 C-239.83936822 289.91388289 -240.74093335 287.85221449 -241.6875 285.8125 C-244.28173065 279.92679996 -246.43178927 274.00593244 -248.375 267.875 C-248.63756592 267.05749268 -248.90013184 266.23998535 -249.1706543 265.39770508 C-249.53090698 264.23791138 -249.53090698 264.23791138 -249.8984375 263.0546875 C-250.11161621 262.36874512 -250.32479492 261.68280273 -250.54443359 260.97607422 C-251 259 -251 259 -251 255 C-251.66 254.67 -252.32 254.34 -253 254 C-253.8947816 251.30395871 -254.19292092 248.63264648 -254.4375 245.8125 C-254.70724581 242.77133352 -255.03466173 239.7789648 -255.5078125 236.76171875 C-258.8823755 213.87647809 -258.12031724 189.71079619 -254 167 C-254.33 167 -254.66 167 -255 167 C-255 165.02 -255 163.04 -255 161 C-254.01 161.33 -253.02 161.66 -252 162 C-251.88785156 161.10474609 -251.88785156 161.10474609 -251.7734375 160.19140625 C-247.71363208 133.40465088 -232.88720646 106.54197486 -217 85 C-216.42894531 84.21625 -215.85789062 83.4325 -215.26953125 82.625 C-210.30142509 76.01659275 -204.67913181 69.99409907 -199 64 C-198.12214844 63.06800781 -197.24429688 62.13601563 -196.33984375 61.17578125 C-185.399098 49.8805489 -172.82033395 40.89732173 -159.78222656 32.19433594 C-158.24905332 31.16689984 -156.72868273 30.12040514 -155.2109375 29.0703125 C-145.04463938 22.24032274 -127.50632994 11 -115 11 C-114.67 10.34 -114.34 9.68 -114 9 C-111.69482422 8.25390625 -111.69482422 8.25390625 -108.6796875 7.5625 C-107.58881836 7.30597656 -106.49794922 7.04945313 -105.37402344 6.78515625 C-104.2605957 6.52605469 -103.14716797 6.26695312 -102 6 C-100.04319761 5.50421679 -98.08742904 5.00433199 -96.1328125 4.5 C-64.19233556 -3.55767525 -32.6037022 -5.74085122 0 0 Z M-71 1 C-72.3303125 1.2180127 -72.3303125 1.2180127 -73.6875 1.44042969 C-107.64759935 7.09668294 -140.18049564 19.50634647 -168 40 C-168.88316895 40.64316162 -168.88316895 40.64316162 -169.78417969 41.29931641 C-215.07785322 74.48619041 -244.25716919 121.6131776 -253.57836914 177.11181641 C-261.23587107 229.5659263 -247.70761686 283.49726887 -217.125 326.625 C-198.3695847 351.57116762 -176.07714725 371.5239326 -149 387 C-148.29375488 387.40734375 -147.58750977 387.8146875 -146.85986328 388.234375 C-97.95917298 416.17114776 -35.07022601 422.26300999 19 408 C61.94879728 395.82366557 101.3544206 372.55730771 129 337 C129.42539062 336.45633789 129.85078125 335.91267578 130.2890625 335.35253906 C150.75557214 309.00639616 164.29846514 278.30272908 169.6875 245.375 C169.81922607 244.61848145 169.95095215 243.86196289 170.08666992 243.08251953 C171.44046413 234.22679097 171 226.26393327 171 217 C207.63 217 244.26 217 282 217 C282 213.7 282 210.4 282 207 C175.08 207 68.16 207 -42 207 C-42 210.3 -42 213.6 -42 217 C24 217 90 217 158 217 C153.25783945 256.51800457 144.30963417 291.59221122 119 323 C118.3296875 323.87269531 117.659375 324.74539063 116.96875 325.64453125 C88.33091976 362.1363933 45.19079241 384.67842186 0 393 C-1.15725586 393.22429687 -1.15725586 393.22429687 -2.33789062 393.453125 C-53.27543607 403.08434794 -110.23611747 391.93598193 -153.13671875 362.71875 C-163.4326757 355.53326926 -172.91779408 347.65947984 -182 339 C-182.77988281 338.27296875 -183.55976563 337.5459375 -184.36328125 336.796875 C-190.98413723 330.44649803 -196.55633808 323.35920543 -202 316 C-202.63639404 315.14607666 -202.63639404 315.14607666 -203.28564453 314.27490234 C-230.87182929 276.7279381 -242.34948406 225.09465394 -235.875 179.1875 C-228.05003052 129.80398904 -202.48556873 84.65518309 -162 55 C-160.41251953 53.83017578 -160.41251953 53.83017578 -158.79296875 52.63671875 C-123.04983317 27.11849988 -79.51763322 13.51325932 -35.6875 13.625 C-34.91230011 13.62521149 -34.13710022 13.62542297 -33.33840942 13.62564087 C6.38295775 13.73279415 45.90051759 24.64931858 79 47 C79.55171875 47.37060547 80.1034375 47.74121094 80.671875 48.12304688 C103.00785882 63.24008097 120.43690954 81.55924427 135.1015625 104.11328125 C136.72233278 106.78975342 136.72233278 106.78975342 138 108 C139.66617115 108.04063832 141.33388095 108.042721 143 108 C140.4029614 89.33594924 120.55036396 70.80709262 108 58 C107.42540039 57.40638672 106.85080078 56.81277344 106.25878906 56.20117188 C102.5044731 52.36989763 98.62131129 48.89972882 94.375 45.625 C93.77236328 45.15731201 93.16972656 44.68962402 92.54882812 44.20776367 C54.54813359 14.96767858 10.04340505 -1.27198754 -38.0625 -1.1875 C-38.75241028 -1.18656342 -39.44232056 -1.18562683 -40.15313721 -1.18466187 C-50.56736312 -1.15404332 -60.71312989 -0.81189189 -71 1 Z M17 219 C21 220 21 220 21 220 Z M22 219 C26 220 26 220 26 220 Z M30 219 C31 221 31 221 31 221 Z M32 219 C36 220 36 220 36 220 Z M109 219 C109.66 219.66 110.32 220.32 111 221 C111 220.34 111 219.68 111 219 C110.34 219 109.68 219 109 219 Z M142 219 C142.33 219.66 142.66 220.32 143 221 C143.33 220.34 143.66 219.68 144 219 C143.34 219 142.68 219 142 219 Z M154 221 C154.66 222.32 155.32 223.64 156 225 C156 223.68 156 222.36 156 221 C155.34 221 154.68 221 154 221 Z " fill="#EEEEEE" transform="translate(535,257)"/>
<path d="M0 0 C0.72693904 1.97888961 1.39816251 3.97954558 2 6 C1.34 6 0.68 6 0 6 C0.9977758 8.99332739 1.7522025 9.94766315 4 12 C2.515 12.495 2.515 12.495 1 13 C0.67 13.99 0.34 14.98 0 16 C-0.66 16 -1.32 16 -2 16 C-2.33 15.67 -2.66 15.34 -3 15 C-4.485 15.99 -4.485 15.99 -6 17 C-6.66 17 -7.32 17 -8 17 C-8 16.01 -8 15.02 -8 14 C-10.54250021 14.11474466 -13.08347338 14.2414697 -15.625 14.375 C-16.69427734 14.42140625 -16.69427734 14.42140625 -17.78515625 14.46875 C-21.26854373 14.6604961 -23.94866101 14.98174341 -27.2734375 16.1640625 C-30 17 -30 17 -31.9375 16.13671875 C-32.618125 15.76160156 -33.29875 15.38648438 -34 15 C-37.37226241 14.72042326 -37.37226241 14.72042326 -41 14.8125 C-42.216875 14.81894531 -43.43375 14.82539063 -44.6875 14.83203125 C-47.33063144 14.96605796 -49.49345523 15.21670476 -52 16 C-52 15.34 -52 14.68 -52 14 C-52.66 14.33 -53.32 14.66 -54 15 C-53.67 15.66 -53.34 16.32 -53 17 C-54.32 16.67 -55.64 16.34 -57 16 C-57 15.67 -57 15.34 -57 15 C-58.65 15 -60.3 15 -62 15 C-62 15.66 -62 16.32 -62 17 C-66.55384615 17.36923077 -66.55384615 17.36923077 -68.8125 15.5 C-69.204375 15.005 -69.59625 14.51 -70 14 C-70.33 14.99 -70.66 15.98 -71 17 C-71 16.01 -71 15.02 -71 14 C-71.66 14.66 -72.32 15.32 -73 16 C-75.65537372 16.56520003 -78.29144713 16.73788198 -81 17 C-81 16.34 -81 15.68 -81 15 C-85.29 14.67 -89.58 14.34 -94 14 C-94 14.99 -94 15.98 -94 17 C-95.65 17 -97.3 17 -99 17 C-99.33 16.34 -99.66 15.68 -100 15 C-102.58605332 14.5316735 -102.58605332 14.5316735 -105.5625 14.375 C-106.57441406 14.30023438 -107.58632813 14.22546875 -108.62890625 14.1484375 C-109.41136719 14.09945313 -110.19382812 14.05046875 -111 14 C-110.95359375 14.86496094 -110.9071875 15.72992188 -110.859375 16.62109375 C-110.48515558 29.67867835 -112.54125922 42.20205345 -115 55 C-115.13889648 55.72574219 -115.27779297 56.45148437 -115.42089844 57.19921875 C-122.31441014 91.22825871 -143.2745722 123.26281016 -167 148 C-167.50934082 148.53657227 -168.01868164 149.07314453 -168.54345703 149.62597656 C-176.13298099 157.58714644 -184.02056278 164.64440754 -193 171 C-193.57443848 171.40814941 -194.14887695 171.81629883 -194.74072266 172.23681641 C-218.77626724 189.14680838 -244.62872681 199.58971278 -273 207 C-274.04196533 207.27432861 -274.04196533 207.27432861 -275.10498047 207.55419922 C-304.32306997 214.98720755 -337.43897945 213.09647101 -367 209 C-367 208.34 -367 207.68 -367 207 C-369.97 206.67 -372.94 206.34 -376 206 C-376.33 206.99 -376.66 207.98 -377 209 C-377.66 209 -378.32 209 -379 209 C-378.67 208.01 -378.34 207.02 -378 206 C-378.66 205.34 -379.32 204.68 -380 204 C-373.25785792 203.75088629 -367.05838874 204.72571097 -360.4375 205.9375 C-351.24878574 207.53107886 -342.33788061 208.78327825 -333 209 C-332.20480957 209.02046387 -331.40961914 209.04092773 -330.59033203 209.06201172 C-270.08477626 210.42764728 -215.09212241 189.71349051 -170.6640625 148.8515625 C-165.28662525 143.64416279 -160.59908781 137.89607529 -156 132 C-155.57315918 131.4548877 -155.14631836 130.90977539 -154.70654297 130.34814453 C-134.27853999 104.0494248 -120.58546121 73.29148118 -115.375 40.375 C-115.25165283 39.61848145 -115.12830566 38.86196289 -115.0012207 38.08251953 C-113.70359468 29.3592398 -113.49576436 20.92375853 -113 12 C-76.37 12 -39.74 12 -2 12 C-2 8.7 -2 5.4 -2 2 C-108.92 2 -215.84 2 -326 2 C-326 5.3 -326 8.6 -326 12 C-325.10692139 11.98952637 -324.21384277 11.97905273 -323.29370117 11.96826172 C-319.97824523 11.93416408 -316.66297579 11.90909363 -313.34741211 11.89013672 C-311.91281188 11.880083 -310.47823211 11.86643806 -309.04370117 11.84912109 C-306.98090562 11.82484451 -304.91838115 11.81351081 -302.85546875 11.8046875 C-301.61434326 11.79421387 -300.37321777 11.78374023 -299.09448242 11.77294922 C-296 12 -296 12 -293 14 C-293.93972656 14.07347656 -293.93972656 14.07347656 -294.8984375 14.1484375 C-295.71570313 14.22320312 -296.53296875 14.29796875 -297.375 14.375 C-298.18710937 14.44460938 -298.99921875 14.51421875 -299.8359375 14.5859375 C-302.20334191 14.82892588 -302.20334191 14.82892588 -304 17 C-304 16.01 -304 15.02 -304 14 C-304.33 14.66 -304.66 15.32 -305 16 C-308.0625 16.625 -308.0625 16.625 -311 17 C-311 16.34 -311 15.68 -311 15 C-316.61 14.67 -322.22 14.34 -328 14 C-328 9.38 -328 4.76 -328 0 C-286.50358939 -0.15022137 -245.00716397 -0.2953267 -203.51071054 -0.4332476 C-198.61635248 -0.44951941 -193.72199455 -0.46583504 -188.82763672 -0.48217773 C-187.85322092 -0.48543066 -186.87880513 -0.48868358 -185.87486158 -0.49203508 C-170.07847804 -0.54487327 -154.28210906 -0.60126411 -138.48574258 -0.6589582 C-122.28814681 -0.71803902 -106.09054131 -0.77332447 -89.89292037 -0.82505554 C-79.89083882 -0.8571202 -69.88877681 -0.89217739 -59.88671921 -0.93101191 C-53.03637243 -0.95732639 -46.18601978 -0.97996836 -39.33565082 -0.99967117 C-35.37801732 -1.01116404 -31.42040711 -1.02432505 -27.46279526 -1.04183006 C-23.84450052 -1.05779866 -20.22622224 -1.06918889 -16.6079006 -1.07683109 C-14.66878755 -1.08214791 -12.72969022 -1.09245918 -10.79059803 -1.10290819 C-9.65102898 -1.10440054 -8.51145993 -1.10589289 -7.33735847 -1.10743046 C-6.34780729 -1.11084794 -5.35825611 -1.11426542 -4.33871853 -1.11778647 C-2 -1 -2 -1 0 0 Z " fill="#F1F1F0" transform="translate(819,462)"/>
<path d="M0 0 C0.72693904 1.97888961 1.39816251 3.97954558 2 6 C1.34 6 0.68 6 0 6 C0.33 6.99 0.66 7.98 1 9 C0.34 9 -0.32 9 -1 9 C-1 6.69 -1 4.38 -1 2 C-108.25 2 -215.5 2 -326 2 C-326 5.3 -326 8.6 -326 12 C-325.10692139 11.98952637 -324.21384277 11.97905273 -323.29370117 11.96826172 C-319.97824523 11.93416408 -316.66297579 11.90909363 -313.34741211 11.89013672 C-311.91281188 11.880083 -310.47823211 11.86643806 -309.04370117 11.84912109 C-306.98090562 11.82484451 -304.91838115 11.81351081 -302.85546875 11.8046875 C-301.61434326 11.79421387 -300.37321777 11.78374023 -299.09448242 11.77294922 C-296 12 -296 12 -293 14 C-293.62648438 14.04898437 -294.25296875 14.09796875 -294.8984375 14.1484375 C-295.71570313 14.22320312 -296.53296875 14.29796875 -297.375 14.375 C-298.18710937 14.44460938 -298.99921875 14.51421875 -299.8359375 14.5859375 C-302.20334191 14.82892588 -302.20334191 14.82892588 -304 17 C-304 16.01 -304 15.02 -304 14 C-304.33 14.66 -304.66 15.32 -305 16 C-308.0625 16.625 -308.0625 16.625 -311 17 C-311 16.34 -311 15.68 -311 15 C-316.61 14.67 -322.22 14.34 -328 14 C-328 9.38 -328 4.76 -328 0 C-286.50358939 -0.15022137 -245.00716397 -0.2953267 -203.51071054 -0.4332476 C-198.61635248 -0.44951941 -193.72199455 -0.46583504 -188.82763672 -0.48217773 C-187.85322092 -0.48543066 -186.87880513 -0.48868358 -185.87486158 -0.49203508 C-170.07847804 -0.54487327 -154.28210906 -0.60126411 -138.48574258 -0.6589582 C-122.28814681 -0.71803902 -106.09054131 -0.77332447 -89.89292037 -0.82505554 C-79.89083882 -0.8571202 -69.88877681 -0.89217739 -59.88671921 -0.93101191 C-53.03637243 -0.95732639 -46.18601978 -0.97996836 -39.33565082 -0.99967117 C-35.37801732 -1.01116404 -31.42040711 -1.02432505 -27.46279526 -1.04183006 C-23.84450052 -1.05779866 -20.22622224 -1.06918889 -16.6079006 -1.07683109 C-14.66878755 -1.08214791 -12.72969022 -1.09245918 -10.79059803 -1.10290819 C-9.65102898 -1.10440054 -8.51145993 -1.10589289 -7.33735847 -1.10743046 C-6.34780729 -1.11084794 -5.35825611 -1.11426542 -4.33871853 -1.11778647 C-2 -1 -2 -1 0 0 Z " fill="#FAFBFB" transform="translate(819,462)"/>
<path d="M0 0 C4.2906375 1.4861426 7.78755956 3.73144291 11.4375 6.375 C12.34894775 7.03266357 12.34894775 7.03266357 13.27880859 7.70361328 C29.69702314 19.73518518 43.8771573 33.67270319 56 50 C56.97066406 51.29550781 56.97066406 51.29550781 57.9609375 52.6171875 C61.41608385 57.38560215 64.47806523 62.35188837 67.4375 67.4375 C67.96960083 68.34338867 67.96960083 68.34338867 68.51245117 69.26757812 C70.10720919 72.06998239 71 73.71961573 71 77 C68.69921875 77.2578125 68.69921875 77.2578125 66 77 C64.33203125 75.3046875 64.33203125 75.3046875 62.8125 72.875 C62.21179688 71.95847656 61.61109375 71.04195313 60.9921875 70.09765625 C60.33476563 69.07542969 59.67734375 68.05320312 59 67 C52.76479892 57.69189516 45.97763366 49.44425902 38.19921875 41.375 C35.30525889 38.36783956 32.63142721 35.23867964 30 32 C33.21524305 33.40844718 35.32183868 35.10344786 37.75 37.625 C38.36359375 38.25664062 38.9771875 38.88828125 39.609375 39.5390625 C40.29773438 40.26222656 40.29773438 40.26222656 41 41 C41.66 39.68 42.32 38.36 43 37 C30.22905184 24.03748762 16.83579261 13.10344559 1.984375 2.53125 C1.32953125 2.0259375 0.6746875 1.520625 0 1 C0 0.67 0 0.34 0 0 Z " fill="#161616" transform="translate(607,288)"/>
<path d="M0 0 C1.98 0 3.96 0 6 0 C7.16611233 35.77074481 -7.19319476 70.89140071 -27 100 C-27.99 99.67 -28.98 99.34 -30 99 C-29.46632813 98.20980469 -28.93265625 97.41960937 -28.3828125 96.60546875 C-10.82156675 70.20375944 -0.25321412 41.60958792 3 10 C2.34 10 1.68 10 1 10 C1 8.35 1 6.7 1 5 C0.34 5 -0.32 5 -1 5 C-0.67 3.35 -0.34 1.7 0 0 Z M2 4 C2.66 5.32 3.32 6.64 4 8 C4 6.68 4 5.36 4 4 C3.34 4 2.68 4 2 4 Z " fill="#EDEDED" transform="translate(687,474)"/>
<path d="M0 0 C0.99 0.33 1.98 0.66 3 1 C2.52691406 1.88816406 2.05382812 2.77632813 1.56640625 3.69140625 C-12.97780093 31.54019405 -19.11264094 58.87189618 -22 90 C-24 88 -24 88 -24.23486328 85.95776367 C-23.74844257 55.49041226 -13.77910537 26.86724472 0 0 Z " fill="#EBEBEC" transform="translate(321,369)"/>
<path d="M0 0 C4.2906375 1.4861426 7.78755956 3.73144291 11.4375 6.375 C12.34894775 7.03266357 12.34894775 7.03266357 13.27880859 7.70361328 C29.69702314 19.73518518 43.8771573 33.67270319 56 50 C56.97066406 51.29550781 56.97066406 51.29550781 57.9609375 52.6171875 C61.42869594 57.40300798 64.48339705 62.38710448 67.4375 67.5 C67.96960083 68.41845703 67.96960083 68.41845703 68.51245117 69.35546875 C71 73.75143491 71 73.75143491 71 76 C70.34 76 69.68 76 69 76 C68.67128906 75.28457031 68.34257813 74.56914062 68.00390625 73.83203125 C62.01787022 61.29217799 54.00897576 50.52361967 45 40 C43.97326172 38.78763672 43.97326172 38.78763672 42.92578125 37.55078125 C33.45454399 26.67899134 22.86669122 17.17559831 11 9 C8.93293654 7.52721728 6.87034399 6.04813737 4.8125 4.5625 C3.89082031 3.90378906 2.96914063 3.24507813 2.01953125 2.56640625 C1.35308594 2.04949219 0.68664062 1.53257812 0 1 C0 0.67 0 0.34 0 0 Z " fill="#0E0E0D" transform="translate(607,288)"/>
<path d="M0 0 C0.928125 0.165 1.85625 0.33 2.8125 0.5 C5.95621353 1.07748388 5.95621353 1.07748388 9 1 C10.796875 2.28515625 10.796875 2.28515625 12.75 4.0625 C13.44609375 4.69414062 14.1421875 5.32578125 14.859375 5.9765625 C17.97310285 8.9198308 21.01270887 11.92869131 24 15 C23.01 17.475 23.01 17.475 22 20 C20.8944811 19.06409496 19.79064547 18.12620142 18.6875 17.1875 C18.07261719 16.66542969 17.45773437 16.14335937 16.82421875 15.60546875 C15 14 15 14 13.39453125 12.328125 C12.06646227 10.83326794 12.06646227 10.83326794 10 10.5625 C7.20075211 9.77521153 6.61783832 8.39440071 5 6 C4.11404785 4.908571 3.21767954 3.82553636 2.3125 2.75 C1.1678125 1.38875 1.1678125 1.38875 0 0 Z " fill="#272727" transform="translate(627,310)"/>
<path d="M0 0 C1.92344238 -0.00797607 1.92344238 -0.00797607 3.88574219 -0.01611328 C12.06691113 0.04421358 19.89215683 0.83253638 27.9375 2.3125 C27.9375 2.6425 27.9375 2.9725 27.9375 3.3125 C26.72392822 3.30202637 25.51035645 3.29155273 24.26000977 3.28076172 C19.67328956 3.24402692 15.08658177 3.22140903 10.49975586 3.20263672 C8.53033243 3.19269904 6.56092327 3.17914424 4.59155273 3.16162109 C-6.59851965 3.06468798 -17.50309298 3.30020316 -28.59375 4.8671875 C-32.80790077 5.40819334 -36.82293737 5.46666591 -41.0625 5.3125 C-30.42961498 -1.77609001 -12.42921702 0.01538734 0 0 Z " fill="#F4F5F5" transform="translate(496.0625,253.6875)"/>
<path d="M0 0 C5.43614072 2.7832093 9.93265026 5.40783094 14 10 C13.67 10.66 13.34 11.32 13 12 C12.34 12 11.68 12 11 12 C11 12.66 11 13.32 11 14 C6.93929678 12.77234554 3.57242299 11.28238136 0 9 C-0.66 8.67 -1.32 8.34 -2 8 C-2.33 7.01 -2.66 6.02 -3 5 C-2.34 5 -1.68 5 -1 5 C-0.67 3.35 -0.34 1.7 0 0 Z " fill="#262627" transform="translate(611,292)"/>
<path d="M0 0 C3.22837932 3.01219321 5.57565943 6.1925736 8 9.875 C17.90656698 24.50572466 30.29647204 37.85310039 44 49 C37.06680255 49 30.8079843 39.94104764 26.0625 35.25 C17.93242587 27.09199854 10.87515493 18.4860824 4.4375 8.9375 C3.9950293 8.28144775 3.55255859 7.62539551 3.09667969 6.94946289 C0 2.2507758 0 2.2507758 0 0 Z " fill="#090908" transform="translate(323,560)"/>
<path d="M0 0 C-0.99 0.495 -0.99 0.495 -2 1 C-2 1.99 -2 2.98 -2 4 C-2.66 3.67 -3.32 3.34 -4 3 C-3.67 2.34 -3.34 1.68 -3 1 C-3.66 1.66 -4.32 2.32 -5 3 C-6.32 3 -7.64 3 -9 3 C-9.33 3.66 -9.66 4.32 -10 5 C-10.99 4.67 -11.98 4.34 -13 4 C-13 3.34 -13 2.68 -13 2 C-13.5775 2.144375 -14.155 2.28875 -14.75 2.4375 C-15.86375 2.7159375 -15.86375 2.7159375 -17 3 C-17.66 3.226875 -18.32 3.45375 -19 3.6875 C-21.58916878 4.09205762 -22.80260379 3.33413341 -25 2 C-25.33 2.66 -25.66 3.32 -26 4 C-27.32 3.34 -28.64 2.68 -30 2 C-30 1.34 -30 0.68 -30 0 C-20.20907504 -2.1757611 -9.87888135 -0.98088184 0 0 Z M-11 1 C-10.34 1.66 -9.68 2.32 -9 3 C-9 2.34 -9 1.68 -9 1 C-9.66 1 -10.32 1 -11 1 Z " fill="#EDEDEB" transform="translate(655,475)"/>
<path d="M0 0 C0.33 0 0.66 0 1 0 C2.88582847 10.60778514 1.8297753 20.63538364 0 31.1875 C-0.19078125 32.33025391 -0.3815625 33.47300781 -0.578125 34.65039062 C-1.04417372 37.43503174 -1.5182423 40.21804145 -2 43 C-4.2379724 39.6430414 -4.18867713 39.27397605 -3.57421875 35.52734375 C-3.43733643 34.63547363 -3.3004541 33.74360352 -3.15942383 32.82470703 C-3.00368896 31.87192871 -2.8479541 30.91915039 -2.6875 29.9375 C-1.17594389 19.95246943 -0.36112095 10.08648166 0 0 Z " fill="#E7E7E7" transform="translate(706,474)"/>
<path d="M0 0 C1.98 0 3.96 0 6 0 C6.36011137 8.50262969 5.2527717 16.61090382 4 25 C3.34 24.67 2.68 24.34 2 24 C2.33 19.38 2.66 14.76 3 10 C2.34 10 1.68 10 1 10 C1 8.35 1 6.7 1 5 C0.34 5 -0.32 5 -1 5 C-0.67 3.35 -0.34 1.7 0 0 Z M2 4 C2.66 5.32 3.32 6.64 4 8 C4 6.68 4 5.36 4 4 C3.34 4 2.68 4 2 4 Z " fill="#D8D7D7" transform="translate(687,474)"/>
<path d="M0 0 C3.98355132 -0.02493556 7.96707167 -0.04297028 11.95068359 -0.05493164 C13.96323241 -0.06236421 15.97575949 -0.07507829 17.98828125 -0.08789062 C24.42163371 -0.10405483 30.6439839 -0.02960975 37 1 C35 3 35 3 31.46826172 3.13525391 C29.95507192 3.09289483 28.4421726 3.03922419 26.9296875 2.9765625 C26.13345978 2.95153656 25.33723206 2.92651062 24.51687622 2.90072632 C21.96915696 2.81843302 19.42220226 2.72188097 16.875 2.625 C15.149771 2.56676988 13.42451046 2.5094664 11.69921875 2.453125 C7.46570463 2.3128406 3.23282193 2.15976487 -1 2 C-0.67 1.34 -0.34 0.68 0 0 Z " fill="#F1F1F1" transform="translate(489,270)"/>
<path d="M0 0 C0.66 0.33 1.32 0.66 2 1 C1.27018606 11.69753587 0.15921571 22.34196822 -1 33 C-3 31 -3 31 -3.24804688 29.00830078 C-3.17017398 22.52797804 -2.49770526 16.27469502 -1.5 9.875 C-1.35691406 8.91851562 -1.21382813 7.96203125 -1.06640625 6.9765625 C-0.71741855 4.64997784 -0.36187667 2.32460844 0 0 Z " fill="#E5E5E4" transform="translate(300,426)"/>
<path d="M0 0 C6.78026209 1.43254768 13.40965402 3.18979498 20.0625 5.125 C21.02349609 5.40214844 21.98449219 5.67929687 22.97460938 5.96484375 C25.31712279 6.64079289 27.65888777 7.31921699 30 8 C26.88456702 9.82465613 26.28205795 10.05825802 22.5390625 9.28515625 C21.23006639 8.89166248 19.92538183 8.48358821 18.625 8.0625 C13.77662428 6.50271379 10.0597963 5.73896718 5 7 C4.34 6.01 3.68 5.02 3 4 C3.99 3.67 4.98 3.34 6 3 C3.69 2.67 1.38 2.34 -1 2 C-0.67 1.34 -0.34 0.68 0 0 Z " fill="#EEEDED" transform="translate(413,657)"/>
<path d="M0 0 C0.66 0.66 1.32 1.32 2 2 C-3.38819323 9.59045205 -9.03268329 16.85855848 -15 24 C-15.99 23.67 -16.98 23.34 -18 23 C-17.3709375 22.34515625 -16.741875 21.6903125 -16.09375 21.015625 C-9.90171573 14.41327521 -4.8104205 7.69936019 0 0 Z " fill="#EDEDED" transform="translate(673,580)"/>
<path d="M0 0 C1 3 1 3 -0.40625 6.22265625 C-1.09195259 7.50918892 -1.79067507 8.78883894 -2.5 10.0625 C-2.86222656 10.72773682 -3.22445312 11.39297363 -3.59765625 12.07836914 C-6.6890597 17.65730216 -10.16254227 22.90337646 -14 28 C-14.33 27.34 -14.66 26.68 -15 26 C-14.16723633 24.13989258 -14.16723633 24.13989258 -12.83203125 21.89453125 C-12.35056641 21.07533203 -11.86910156 20.25613281 -11.37304688 19.41210938 C-10.60057617 18.12530273 -10.60057617 18.12530273 -9.8125 16.8125 C-8.81892438 15.13156127 -7.82543344 13.45057248 -6.83203125 11.76953125 C-6.3520166 10.96338379 -5.87200195 10.15723633 -5.37744141 9.32666016 C-3.54875239 6.23778984 -1.77043728 3.12256122 0 0 Z " fill="#F3F4F3" transform="translate(689,553)"/>
<path d="M0 0 C0 0.66 0 1.32 0 2 C-9.69015248 4.55004013 -20.10000688 6.02257924 -30 4 C-30 3.67 -30 3.34 -30 3 C-29.35973877 2.94465088 -28.71947754 2.88930176 -28.05981445 2.83227539 C-25.1437846 2.57855835 -22.22814766 2.32057051 -19.3125 2.0625 C-17.80139648 1.93198242 -17.80139648 1.93198242 -16.25976562 1.79882812 C-15.28330078 1.71181641 -14.30683594 1.62480469 -13.30078125 1.53515625 C-12.40528564 1.456604 -11.50979004 1.37805176 -10.5871582 1.29711914 C-7.97887512 1.03455823 -7.97887512 1.03455823 -5.35620117 0.46655273 C-3 0 -3 0 0 0 Z " fill="#E9EAEA" transform="translate(538,668)"/>
<path d="M0 0 C20.295 0.495 20.295 0.495 41 1 C41 1.33 41 1.66 41 2 C20.21 2.495 20.21 2.495 -1 3 C-0.67 2.01 -0.34 1.02 0 0 Z " fill="#353535" transform="translate(472,668)"/>
<path d="M0 0 C0.99 0.33 1.98 0.66 3 1 C0.65073637 2.92294938 -1.70406415 4.83835549 -4.0625 6.75 C-4.71927734 7.28882813 -5.37605469 7.82765625 -6.05273438 8.3828125 C-10.18795683 11.72358335 -14.31266901 14.48871213 -19 17 C-19 16.01 -19 15.02 -19 14 C-16.98682096 12.40498871 -15.02599359 11.00911762 -12.875 9.625 C-11.72458043 8.87019983 -10.5761329 8.11238536 -9.4296875 7.3515625 C-8.57455566 6.78743652 -8.57455566 6.78743652 -7.70214844 6.21191406 C-5.94172775 4.95851069 -4.36733071 3.5887423 -2.7578125 2.1484375 C-1.84773437 1.43945312 -0.93765625 0.73046875 0 0 Z " fill="#EDEDED" transform="translate(629,604)"/>
<path d="M0 0 C2.04197094 3.35914674 2.1835561 5.74914537 1.9765625 9.640625 C1.89921875 11.24550781 1.89921875 11.24550781 1.8203125 12.8828125 C1.75585938 13.99398438 1.69140625 15.10515625 1.625 16.25 C1.56828125 17.37664062 1.5115625 18.50328125 1.453125 19.6640625 C1.31180452 22.44336528 1.16040592 25.2217441 1 28 C0.67 28 0.34 28 0 28 C-1.75717094 18.69815066 -1.26629981 9.3389611 0 0 Z " fill="#E7E6E7" transform="translate(279,437)"/>
<path d="M0 0 C3.28639138 3.28639138 4.48034649 7.66812656 6.1875 11.9375 C6.56841797 12.85724609 6.94933594 13.77699219 7.34179688 14.72460938 C7.87450195 16.05008789 7.87450195 16.05008789 8.41796875 17.40234375 C8.74563232 18.21179443 9.0732959 19.02124512 9.41088867 19.85522461 C10 22 10 22 9 25 C4.11251343 17.66877015 0.35416447 8.85411172 0 0 Z " fill="#EDEDED" transform="translate(289,527)"/>
<path d="M0 0 C-1.11934698 3.35804095 -1.67020545 3.73995917 -4.4921875 5.62890625 C-5.19730469 6.10650391 -5.90242188 6.58410156 -6.62890625 7.07617188 C-7.37011719 7.56666016 -8.11132812 8.05714844 -8.875 8.5625 C-9.60847656 9.05685547 -10.34195312 9.55121094 -11.09765625 10.06054688 C-13.06013046 11.38137423 -15.02848427 12.69272351 -17 14 C-17.99 14.66 -18.98 15.32 -20 16 C-20 15.01 -20 14.02 -20 13 C-18.37939453 11.46606445 -18.37939453 11.46606445 -16.1328125 9.86328125 C-15.32972656 9.28642578 -14.52664063 8.70957031 -13.69921875 8.11523438 C-12.84972656 7.52033203 -12.00023437 6.92542969 -11.125 6.3125 C-10.28324219 5.70599609 -9.44148438 5.09949219 -8.57421875 4.47460938 C-2.28258577 0 -2.28258577 0 0 0 Z " fill="#EAEAEA" transform="translate(377,289)"/>
<path d="M0 0 C0.66 0 1.32 0 2 0 C4.66666667 5.33333333 7.33333333 10.66666667 10 16 C10.39074707 16.67836914 10.78149414 17.35673828 11.18408203 18.05566406 C12 20 12 20 11 23 C0 5.23367698 0 5.23367698 0 0 Z " fill="#F0F0EF" transform="translate(314,539)"/>
<path d="M0 0 C0.33 0.99 0.66 1.98 1 3 C-1.03971112 4.27406288 -3.08165264 5.54429202 -5.125 6.8125 C-5.69476562 7.16892578 -6.26453125 7.52535156 -6.8515625 7.89257812 C-10.47938085 10.13935199 -14.15629859 12.14824719 -18 14 C-18 13.01 -18 12.02 -18 11 C-17.28714844 10.62488281 -16.57429687 10.24976563 -15.83984375 9.86328125 C-10.26424715 6.88412667 -5.04428098 3.81123452 0 0 Z " fill="#EAE9E9" transform="translate(621,633)"/>
<path d="M0 0 C3.67882073 3.28466137 5.75150101 6.66360908 8 11 C8 11.66 8 12.32 8 13 C6.203125 12.81640625 6.203125 12.81640625 4 12 C2.296875 9.71484375 2.296875 9.71484375 0.75 6.9375 C-0.03117188 5.55884766 -0.03117188 5.55884766 -0.828125 4.15234375 C-1.21484375 3.44207031 -1.6015625 2.73179687 -2 2 C-1.34 2 -0.68 2 0 2 C0 1.34 0 0.68 0 0 Z " fill="#262627" transform="translate(667,348)"/>
<path d="M0 0 C5.57142857 5.14285714 5.57142857 5.14285714 6 9 C3 10 3 10 0 9 C-0.94921875 7.15234375 -0.94921875 7.15234375 -1.6875 4.9375 C-1.93886719 4.20402344 -2.19023438 3.47054688 -2.44921875 2.71484375 C-2.63097656 2.14894531 -2.81273437 1.58304687 -3 1 C-2.01 0.67 -1.02 0.34 0 0 Z " fill="#262728" transform="translate(661,339)"/>
<path d="M0 0 C0.33 0 0.66 0 1 0 C1.12375 1.670625 1.12375 1.670625 1.25 3.375 C1.57873787 7.05753944 1.57873787 7.05753944 4.0625 8.4375 C4.701875 8.623125 5.34125 8.80875 6 9 C5.67 9.66 5.34 10.32 5 11 C4.34 11 3.68 11 3 11 C2.67 11.99 2.34 12.98 2 14 C1.34 14 0.68 14 0 14 C-0.33 13.34 -0.66 12.68 -1 12 C-3.32156597 11.59270772 -5.6568787 11.25561323 -8 11 C-8 10.67 -8 10.34 -8 10 C-5.36 10 -2.72 10 0 10 C0 6.7 0 3.4 0 0 Z " fill="#DFDEDE" transform="translate(817,464)"/>
<path d="M0 0 C4.17576168 0.68416434 7.88080407 2.01365009 11.8125 3.5625 C13.55466797 4.24505859 13.55466797 4.24505859 15.33203125 4.94140625 C16.21246094 5.29074219 17.09289062 5.64007812 18 6 C17.67 6.66 17.34 7.32 17 8 C11.14340094 6.33846988 5.5409866 4.52958084 0 2 C0 1.34 0 0.68 0 0 Z " fill="#E9E8E8" transform="translate(409,634)"/>
<path d="M0 0 C2.19050021 0.09017996 4.378466 0.24666208 6.5625 0.4375 C7.76003906 0.53933594 8.95757813 0.64117187 10.19140625 0.74609375 C11.11824219 0.82988281 12.04507813 0.91367187 13 1 C12.01 1.495 12.01 1.495 11 2 C11 2.99 11 3.98 11 5 C10.34 4.67 9.68 4.34 9 4 C9.33 3.34 9.66 2.68 10 2 C9.34 2.66 8.68 3.32 8 4 C6.68 4 5.36 4 4 4 C3.67 4.66 3.34 5.32 3 6 C2.01 5.67 1.02 5.34 0 5 C-0.75 3 -0.75 3 -1 1 C-0.67 0.67 -0.34 0.34 0 0 Z M2 2 C2.66 2.66 3.32 3.32 4 4 C4 3.34 4 2.68 4 2 C3.34 2 2.68 2 2 2 Z " fill="#E7E7E5" transform="translate(642,474)"/>
<path d="M0 0 C1.4391134 0.28359887 2.87625518 0.57721399 4.3125 0.875 C5.11300781 1.03742187 5.91351563 1.19984375 6.73828125 1.3671875 C9 2 9 2 12 4 C8.535 5.485 8.535 5.485 5 7 C4.34 6.01 3.68 5.02 3 4 C3.99 3.67 4.98 3.34 6 3 C3.69 2.67 1.38 2.34 -1 2 C-0.67 1.34 -0.34 0.68 0 0 Z " fill="#E0E0E0" transform="translate(413,657)"/>
<path d="M0 0 C-3.1622274 1.73169596 -6.26742722 2.7128976 -9.75 3.625 C-10.73484375 3.88539063 -11.7196875 4.14578125 -12.734375 4.4140625 C-13.85585938 4.70410156 -13.85585938 4.70410156 -15 5 C-15.66 4.34 -16.32 3.68 -17 3 C-15.1096624 2.29753005 -13.21243172 1.61359151 -11.3125 0.9375 C-10.25675781 0.55464844 -9.20101563 0.17179687 -8.11328125 -0.22265625 C-4.90666208 -1.0233052 -3.1313693 -0.9237249 0 0 Z " fill="#E4E4E4" transform="translate(444,279)"/>
<path d="M0 0 C-0.99 1.485 -0.99 1.485 -2 3 C-4.2421875 3.36328125 -4.2421875 3.36328125 -6.875 3.3125 C-7.73867188 3.30863281 -8.60234375 3.30476563 -9.4921875 3.30078125 C-12.0852226 2.9897786 -13.75999753 2.30753633 -16 1 C-10.62915894 0.31798844 -5.41499441 -0.11521265 0 0 Z " fill="#E3E3E3" transform="translate(489,270)"/>
<path d="M0 0 C4.2829452 0.5479083 6.85135641 2.02432804 10.3125 4.5625 C11.19550781 5.20316406 12.07851563 5.84382813 12.98828125 6.50390625 C13.65214844 6.99761719 14.31601562 7.49132812 15 8 C13.2890625 8.70703125 13.2890625 8.70703125 11 9 C8.7109375 7.63671875 8.7109375 7.63671875 6.375 5.6875 C5.59898437 5.05199219 4.82296875 4.41648437 4.0234375 3.76171875 C2.63871846 2.5561043 1.29825903 1.29825903 0 0 Z " fill="#E8E9E8" transform="translate(616,307)"/>
<path d="M0 0 C0.33 0 0.66 0 1 0 C1 2.64 1 5.28 1 8 C1.66 8 2.32 8 3 8 C2.67 11.63 2.34 15.26 2 19 C1.67 19 1.34 19 1 19 C-0.00926479 14.84373632 -0.10239579 10.95634906 -0.0625 6.6875 C-0.05347656 5.43324219 -0.04445313 4.17898438 -0.03515625 2.88671875 C-0.01775391 1.45779297 -0.01775391 1.45779297 0 0 Z " fill="#0D0D0D" transform="translate(281,475)"/>
<path d="M0 0 C0.33 0 0.66 0 1 0 C1 4.29 1 8.58 1 13 C0.34 13 -0.32 13 -1 13 C-1.33 14.32 -1.66 15.64 -2 17 C-2.25287193 10.93107371 -1.69832609 5.83799592 0 0 Z " fill="#111212" transform="translate(284,422)"/>
<path d="M0 0 C1.62542193 0.64477069 3.25032424 1.29085143 4.875 1.9375 C5.77992188 2.29714844 6.68484375 2.65679687 7.6171875 3.02734375 C10 4 10 4 12 5 C11.67 5.99 11.34 6.98 11 8 C7.04 6.02 3.08 4.04 -1 2 C-0.67 1.34 -0.34 0.68 0 0 Z " fill="#E4E3E3" transform="translate(584,273)"/>
<path d="M0 0 C0 0.33 0 0.66 0 1 C-13.6332574 3.48063781 -13.6332574 3.48063781 -20 2 C-20 1.67 -20 1.34 -20 1 C-13.34362157 -0.23839599 -6.7528064 -0.09139136 0 0 Z " fill="#F9F9F7" transform="translate(631,474)"/>
<path d="M0 0 C1.95825873 -0.02694851 3.91662226 -0.04637218 5.875 -0.0625 C6.96554687 -0.07410156 8.05609375 -0.08570313 9.1796875 -0.09765625 C12 0 12 0 14 1 C13.67 1.99 13.34 2.98 13 4 C8.65535464 3.39174965 4.32448133 2.73832608 0 2 C0 1.34 0 0.68 0 0 Z " fill="#D8D8D7" transform="translate(575,476)"/>
<path d="M0 0 C6.44541485 6.26637555 6.44541485 6.26637555 9 10 C8.67 10.99 8.34 11.98 8 13 C6.6578508 11.40320196 5.32652885 9.79729803 4 8.1875 C2.88625 6.84751953 2.88625 6.84751953 1.75 5.48046875 C0 3 0 3 0 0 Z " fill="#F1F1F2" transform="translate(315,580)"/>
<path d="M0 0 C1.98 0 3.96 0 6 0 C5.67 2.31 5.34 4.62 5 7 C4.67 6.01 4.34 5.02 4 4 C2.35 4.33 0.7 4.66 -1 5 C-0.67 3.35 -0.34 1.7 0 0 Z " fill="#E2E2E3" transform="translate(687,474)"/>
<path d="M0 0 C3.62276315 1.3255581 6.63505348 2.94346955 9.8125 5.125 C10.60269531 5.66382813 11.39289062 6.20265625 12.20703125 6.7578125 C12.79871094 7.16773438 13.39039063 7.57765625 14 8 C13.01 8.33 12.02 8.66 11 9 C8.30078125 7.3828125 8.30078125 7.3828125 5.3125 5.125 C4.31863281 4.38507813 3.32476563 3.64515625 2.30078125 2.8828125 C1.54152344 2.26148438 0.78226563 1.64015625 0 1 C0 0.67 0 0.34 0 0 Z " fill="#121212" transform="translate(607,288)"/>
<path d="M0 0 C-0.99 0.33 -1.98 0.66 -3 1 C-3 1.66 -3 2.32 -3 3 C-7.29 3 -11.58 3 -16 3 C-11.918638 -1.081362 -5.43630843 -0.09372946 0 0 Z " fill="#0F1010" transform="translate(472,258)"/>
<path d="M0 0 C2.95126765 1.70957577 3.87964785 2.57592898 4.828125 5.91796875 C4.96734375 6.99691406 5.1065625 8.07585938 5.25 9.1875 C5.39953125 10.27417969 5.5490625 11.36085938 5.703125 12.48046875 C5.85007812 13.72763672 5.85007812 13.72763672 6 15 C3.92786786 12.40548161 2.44859522 10.05725355 1.3125 6.9375 C1.06113281 6.26589844 0.80976563 5.59429688 0.55078125 4.90234375 C0 3 0 3 0 0 Z " fill="#2A2A2A" transform="translate(307,529)"/>
<path d="M0 0 C0 3 0 3 -1.875 5.1875 C-4 7 -4 7 -6 7 C-6 7.66 -6 8.32 -6 9 C-7.98 9.99 -7.98 9.99 -10 11 C-8.55218207 7.55571735 -6.72305391 5.63869038 -3.875 3.25 C-3.15054687 2.63640625 -2.42609375 2.0228125 -1.6796875 1.390625 C-0.84824219 0.70226562 -0.84824219 0.70226562 0 0 Z " fill="#F4F5F5" transform="translate(363,319)"/>
<path d="M0 0 C3.23861303 1.44424635 5.61969163 3.25772247 8.25 5.625 C8.95640625 6.25664062 9.6628125 6.88828125 10.390625 7.5390625 C10.92171875 8.02117187 11.4528125 8.50328125 12 9 C11.01 9.33 10.02 9.66 9 10 C7.49702124 8.52386015 5.99768715 7.04400843 4.5 5.5625 C3.6646875 4.73878906 2.829375 3.91507812 1.96875 3.06640625 C0 1 0 1 0 0 Z " fill="#F7F7F7" transform="translate(635,307)"/>
<path d="M0 0 C3.21043882 1.38188453 5.04936365 2.92421903 7.25 5.625 C8.03117187 6.57246094 8.03117187 6.57246094 8.828125 7.5390625 C9.40820312 8.26222656 9.40820312 8.26222656 10 9 C7.27425729 8.62669176 6.19177915 8.20805399 4.296875 6.15234375 C3.53117187 5.05599609 3.53117187 5.05599609 2.75 3.9375 C2.22921875 3.20402344 1.7084375 2.47054687 1.171875 1.71484375 C0.78515625 1.14894531 0.3984375 0.58304688 0 0 Z " fill="#EFEFEE" transform="translate(340,582)"/>
<path d="M0 0 C3.33557632 2.9905167 5.15083921 5.93184627 7 10 C6.01 10.495 6.01 10.495 5 11 C3.02 7.7 1.04 4.4 -1 1 C-0.67 0.67 -0.34 0.34 0 0 Z " fill="#E3E3E3" transform="translate(326,561)"/>
<path d="M0 0 C0 0.99 0 1.98 0 3 C-5.53846154 3.36923077 -5.53846154 3.36923077 -7.875 1.5 C-8.24625 1.005 -8.6175 0.51 -9 0 C-5.93109813 -1.53445094 -3.29905734 -0.54984289 0 0 Z " fill="#E0DFDE" transform="translate(558,277)"/>
<path d="M0 0 C0 0.99 0 1.98 0 3 C-1.96875 4.60546875 -1.96875 4.60546875 -4.5 6.1875 C-5.3353125 6.71730469 -6.170625 7.24710938 -7.03125 7.79296875 C-7.6809375 8.19128906 -8.330625 8.58960938 -9 9 C-7.63783758 5.78034336 -6.27468847 4.18312565 -3.375 2.25 C-2.74335937 1.82203125 -2.11171875 1.3940625 -1.4609375 0.953125 C-0.97882812 0.63859375 -0.49671875 0.3240625 0 0 Z " fill="#F0F1F1" transform="translate(631,626)"/>
<path d="M0 0 C0.66 0.66 1.32 1.32 2 2 C0.02 4.31 -1.96 6.62 -4 9 C-4.99 8.67 -5.98 8.34 -7 8 C-4.69 5.36 -2.38 2.72 0 0 Z " fill="#E3E3E3" transform="translate(662,595)"/>
<path d="M0 0 C0.66 1.32 1.32 2.64 2 4 C2.66 4.66 3.32 5.32 4 6 C3.34 6 2.68 6 2 6 C1.67 8.64 1.34 11.28 1 14 C0.67 14 0.34 14 0 14 C0 9.38 0 4.76 0 0 Z " fill="#E7E8E7" transform="translate(298,472)"/>
<path d="M0 0 C4.93928888 -0.3367697 5.78492722 -0.16130459 10 3 C5.71 3 1.42 3 -3 3 C-2.01 2.67 -1.02 2.34 0 2 C0 1.34 0 0.68 0 0 Z " fill="#2B2B2C" transform="translate(506,256)"/>
<path d="M0 0 C0.66 0 1.32 0 2 0 C0.87548273 2.9719385 -0.22293791 5.33440687 -2 8 C-2.99 7.67 -3.98 7.34 -5 7 C-4.21654285 5.82780457 -3.42297164 4.66236332 -2.625 3.5 C-2.18414063 2.8503125 -1.74328125 2.200625 -1.2890625 1.53125 C-0.65097656 0.77328125 -0.65097656 0.77328125 0 0 Z " fill="#E1E1E0" transform="translate(662,566)"/>
<path d="M0 0 C0.33 0 0.66 0 1 0 C1.33 2.97 1.66 5.94 2 9 C1.01 9 0.02 9 -1 9 C-2.0326802 6.21176345 -2.04509293 5.1322726 -1.0625 2.25 C-0.711875 1.5075 -0.36125 0.765 0 0 Z " fill="#E2E1E1" transform="translate(283,502)"/>
<path d="M0 0 C3.3 0 6.6 0 10 0 C9.67 0.99 9.34 1.98 9 3 C5.7 3 2.4 3 -1 3 C-0.67 2.01 -0.34 1.02 0 0 Z " fill="#DAD9D8" transform="translate(564,476)"/>
<path d="M0 0 C2.97 0.495 2.97 0.495 6 1 C6 1.99 6 2.98 6 4 C6.66 4.33 7.32 4.66 8 5 C5.6875 5.3125 5.6875 5.3125 3 5 C1.1875 2.5 1.1875 2.5 0 0 Z " fill="#151516" transform="translate(670,360)"/>
<path d="M0 0 C4.51617599 -0.07654536 8.59085217 -0.10228696 13 1 C13 1.33 13 1.66 13 2 C9.37 2.33 5.74 2.66 2 3 C1.34 2.01 0.68 1.02 0 0 Z " fill="#2C2C2B" transform="translate(524,269)"/>
<path d="M0 0 C3.63 0 7.26 0 11 0 C7.99382731 3.00617269 5.17618402 2.59585316 1 3 C0.67 2.01 0.34 1.02 0 0 Z " fill="#E7E7E6" transform="translate(799,477)"/>
<path d="M0 0 C0 0.33 0 0.66 0 1 C-3.3 1.33 -6.6 1.66 -10 2 C-10.33 1.34 -10.66 0.68 -11 0 C-6.94952424 -1.35015859 -4.2079832 -0.62084998 0 0 Z " fill="#DCDBDA" transform="translate(530,477)"/>
<path d="M0 0 C3.94139078 1.66751148 6.7892812 4.22710649 10 7 C6.433255 7 5.89456323 6.36308045 3.3125 4.0625 C2.68988281 3.51722656 2.06726563 2.97195313 1.42578125 2.41015625 C0.95527344 1.94480469 0.48476563 1.47945312 0 1 C0 0.67 0 0.34 0 0 Z " fill="#0E0F0F" transform="translate(357,602)"/>
<path d="M0 0 C-1.4638611 4.39158329 -3.97831338 4.87947433 -8 7 C-8 6.01 -8 5.02 -8 4 C-2.74285714 0 -2.74285714 0 0 0 Z " fill="#E3E4E3" transform="translate(377,289)"/>
<path d="M0 0 C0.99 0.33 1.98 0.66 3 1 C1.68 3.31 0.36 5.62 -1 8 C-1.66 7.34 -2.32 6.68 -3 6 C-2.01 4.02 -1.02 2.04 0 0 Z " fill="#E7E6E6" transform="translate(321,369)"/>
<path d="M0 0 C-1.25125384 3.75376152 -2.5652404 4.24073289 -6 6 C-6.66 6 -7.32 6 -8 6 C-8 5.34 -8 4.68 -8 4 C-2.58823529 0 -2.58823529 0 0 0 Z " fill="#EDEDED" transform="translate(385,284)"/>
<path d="M0 0 C0 0.66 0 1.32 0 2 C-2.31 3.32 -4.62 4.64 -7 6 C-7 5.01 -7 4.02 -7 3 C-2.77777778 0 -2.77777778 0 0 0 Z " fill="#E3E4E3" transform="translate(617,615)"/>
<path d="M0 0 C7.42857143 -0.28571429 7.42857143 -0.28571429 11 2 C6.58937864 3.0257259 4.07369424 3.03684712 0 1 C0 0.67 0 0.34 0 0 Z " fill="#DCDBDA" transform="translate(550,476)"/>
<path d="M0 0 C0.99 0.33 1.98 0.66 3 1 C2.67 2.65 2.34 4.3 2 6 C1.34 6 0.68 6 0 6 C0 4.02 0 2.04 0 0 Z " fill="#CDCDCC" transform="translate(296,368)"/>
<path d="M0 0 C3.3 0 6.6 0 10 0 C5.64467851 2.17766075 4.53374042 2.03039555 0 1 C0 0.67 0 0.34 0 0 Z " fill="#DEDEDC" transform="translate(775,477)"/>
<path d="M0 0 C1.98 0 3.96 0 6 0 C6 0.66 6 1.32 6 2 C5.01 2.33 4.02 2.66 3 3 C3 2.34 3 1.68 3 1 C2.01 0.67 1.02 0.34 0 0 Z " fill="#D5D5D4" transform="translate(727,477)"/>
<path d="M0 0 C0.99 0.33 1.98 0.66 3 1 C1.68 1.99 0.36 2.98 -1 4 C-0.67 2.68 -0.34 1.36 0 0 Z " fill="#D1D1D2" transform="translate(289,384)"/>
<path d="M0 0 C0.66 1.32 1.32 2.64 2 4 C1.34 4.66 0.68 5.32 0 6 C0 4.02 0 2.04 0 0 Z " fill="#CFD0CF" transform="translate(656,346)"/>
<path d="M0 0 C0.66 0 1.32 0 2 0 C2.33 0.99 2.66 1.98 3 3 C2.01 3 1.02 3 0 3 C0 2.01 0 1.02 0 0 Z " fill="#CBCBCB" transform="translate(616,309)"/>
<path d="M0 0 C1.32 0.33 2.64 0.66 4 1 C2.68 1.33 1.36 1.66 0 2 C0 1.34 0 0.68 0 0 Z " fill="#D4D5D4" transform="translate(448,670)"/>
<path d="M0 0 C0.99 0.33 1.98 0.66 3 1 C2.34 1.66 1.68 2.32 1 3 C0.67 2.01 0.34 1.02 0 0 Z " fill="#C9CAC9" transform="translate(648,578)"/>
<path d="M0 0 C0.66 0 1.32 0 2 0 C2.33 0.99 2.66 1.98 3 3 C2.01 2.67 1.02 2.34 0 2 C0 1.34 0 0.68 0 0 Z " fill="#CCCBCB" transform="translate(672,536)"/>
<path d="M0 0 C1.32 0 2.64 0 4 0 C3.67 0.66 3.34 1.32 3 2 C2.01 1.67 1.02 1.34 0 1 C0 0.67 0 0.34 0 0 Z " fill="#C6C4C3" transform="translate(709,477)"/>
<path d="M0 0 C0.66 0 1.32 0 2 0 C1.67 1.32 1.34 2.64 1 4 C0.67 2.68 0.34 1.36 0 0 Z " fill="#ECEEEF" transform="translate(488,467)"/>
<path d="M0 0 C1.65 0 3.3 0 5 0 C5 0.33 5 0.66 5 1 C3.35 1 1.7 1 0 1 C0 0.67 0 0.34 0 0 Z " fill="#E7E6E6" transform="translate(502,477)"/>
<path d="M0 0 C1.65 0 3.3 0 5 0 C5 0.33 5 0.66 5 1 C3.35 1 1.7 1 0 1 C0 0.67 0 0.34 0 0 Z " fill="#EDEDEC" transform="translate(494,477)"/>
<path d="M0 0 C0.99 0.495 0.99 0.495 2 1 C1.01 2.485 1.01 2.485 0 4 C0 2.68 0 1.36 0 0 Z " fill="#CAC9C8" transform="translate(288,392)"/>
<path d="M0 0 C0.33 0.66 0.66 1.32 1 2 C1.66 2.33 2.32 2.66 3 3 C2.01 3 1.02 3 0 3 C0 2.01 0 1.02 0 0 Z " fill="#CECCCB" transform="translate(648,337)"/>
<path d="M0 0 C0.33 0.99 0.66 1.98 1 3 C0.34 3 -0.32 3 -1 3 C-0.67 2.01 -0.34 1.02 0 0 Z " fill="#CDCECE" transform="translate(369,289)"/>
<path d="M0 0 C4 1 4 1 4 1 Z " fill="#CFCECF" transform="translate(535,671)"/>
<path d="M0 0 C0.66 0.33 1.32 0.66 2 1 C1.01 1 0.02 1 -1 1 C-0.67 0.67 -0.34 0.34 0 0 Z " fill="#C9C9CB" transform="translate(289,537)"/>
<path d="M0 0 C0.99 1.485 0.99 1.485 2 3 C1.34 3 0.68 3 0 3 C0 2.01 0 1.02 0 0 Z " fill="#C4C5C5" transform="translate(288,533)"/>
<path d="M0 0 C0.66 0 1.32 0 2 0 C2 0.66 2 1.32 2 2 C1.34 2 0.68 2 0 2 C0 1.34 0 0.68 0 0 Z " fill="#CBCAC9" transform="translate(302,486)"/>
<path d="M0 0 C0.66 0 1.32 0 2 0 C1.67 0.99 1.34 1.98 1 3 C0.67 2.01 0.34 1.02 0 0 Z " fill="#F2F3F1" transform="translate(491,477)"/>
<path d="M0 0 C0.66 0 1.32 0 2 0 C2 0.66 2 1.32 2 2 C1.34 2 0.68 2 0 2 C0 1.34 0 0.68 0 0 Z " fill="#E3E3E2" transform="translate(795,477)"/>
<path d="M0 0 C0.99 0.33 1.98 0.66 3 1 C2.01 1 1.02 1 0 1 C0 0.67 0 0.34 0 0 Z " fill="#DEDCDB" transform="translate(772,477)"/>
<path d="M0 0 C0.66 0 1.32 0 2 0 C2 0.66 2 1.32 2 2 C1.34 2 0.68 2 0 2 C0 1.34 0 0.68 0 0 Z " fill="#DBDBD9" transform="translate(619,477)"/>
<path d="M0 0 C0.66 0.33 1.32 0.66 2 1 C1.01 1 0.02 1 -1 1 C-0.67 0.67 -0.34 0.34 0 0 Z " fill="#DBDAD9" transform="translate(612,477)"/>
<path d="M0 0 C0.66 0 1.32 0 2 0 C2 0.66 2 1.32 2 2 C1.34 2 0.68 2 0 2 C0 1.34 0 0.68 0 0 Z " fill="#DDDCDB" transform="translate(595,477)"/>
<path d="M0 0 C0.66 0.66 1.32 1.32 2 2 C1.01 2.495 1.01 2.495 0 3 C0 2.01 0 1.02 0 0 Z " fill="#D1D0D3" transform="translate(304,354)"/>
<path d="M0 0 C0.66 0.66 1.32 1.32 2 2 C1.01 1.67 0.02 1.34 -1 1 C-0.67 0.67 -0.34 0.34 0 0 Z " fill="#DCDCDA" transform="translate(678,353)"/>
<path d="M0 0 C0.99 0.33 1.98 0.66 3 1 C2.01 1.33 1.02 1.66 0 2 C0 1.34 0 0.68 0 0 Z " fill="#CECECF" transform="translate(306,352)"/>
<path d="M0 0 C0.99 1.485 0.99 1.485 2 3 C1.34 3 0.68 3 0 3 C0 2.01 0 1.02 0 0 Z " fill="#CDCCCD" transform="translate(624,314)"/>
<path d="M0 0 C0.99 0.33 1.98 0.66 3 1 C2.01 1 1.02 1 0 1 C0 0.67 0 0.34 0 0 Z " fill="#CCCBCB" transform="translate(584,291)"/>
<path d="M0 0 C0.99 0.33 1.98 0.66 3 1 C2.01 1 1.02 1 0 1 C0 0.67 0 0.34 0 0 Z " fill="#D1D1D4" transform="translate(571,286)"/>
<path d="M0 0 C0.99 0.33 1.98 0.66 3 1 C2.01 1 1.02 1 0 1 C0 0.67 0 0.34 0 0 Z " fill="#D3D2D3" transform="translate(568,285)"/>
<path d="M0 0 C0.99 0.495 0.99 0.495 2 1 C1.67 1.66 1.34 2.32 1 3 C0.67 2.01 0.34 1.02 0 0 Z " fill="#CFCFD1" transform="translate(606,281)"/>
<path d="M0 0 C0.99 0.33 1.98 0.66 3 1 C2.01 1 1.02 1 0 1 C0 0.67 0 0.34 0 0 Z " fill="#D0D1D1" transform="translate(441,258)"/>
<path d="M0 0 C0.66 0.66 1.32 1.32 2 2 C1.34 2 0.68 2 0 2 C0 1.34 0 0.68 0 0 Z " fill="#D9DAD9" transform="translate(414,662)"/>
<path d="M0 0 C0.66 0.66 1.32 1.32 2 2 C1.34 2 0.68 2 0 2 C0 1.34 0 0.68 0 0 Z " fill="#D3D2D1" transform="translate(400,654)"/>
<path d="M0 0 C3 1 3 1 3 1 Z " fill="#CECFD0" transform="translate(493,650)"/>
<path d="M0 0 C0.33 0.66 0.66 1.32 1 2 C0.34 1.67 -0.32 1.34 -1 1 C-0.67 0.67 -0.34 0.34 0 0 Z " fill="#D4D4D5" transform="translate(382,646)"/>
<path d="" fill="#CCCCCD" transform="translate(0,0)"/>
<path d="M0 0 C0.66 0 1.32 0 2 0 C1.67 0.66 1.34 1.32 1 2 C0.67 1.34 0.34 0.68 0 0 Z " fill="#CCCECC" transform="translate(306,573)"/>
<path d="M0 0 C0.99 0.495 0.99 0.495 2 1 C1.01 1.495 1.01 1.495 0 2 C0 1.34 0 0.68 0 0 Z " fill="#CCCACC" transform="translate(305,571)"/>
<path d="" fill="#CBCAC9" transform="translate(0,0)"/>
<path d="M0 0 C0.66 0.66 1.32 1.32 2 2 C1.34 2 0.68 2 0 2 C0 1.34 0 0.68 0 0 Z " fill="#CBCAC8" transform="translate(282,515)"/>
<path d="" fill="#BBBDBA" transform="translate(0,0)"/>
<path d="M0 0 C3 1 3 1 3 1 Z " fill="#C8C8C7" transform="translate(715,478)"/>
<path d="M0 0 C0.66 0.66 1.32 1.32 2 2 C1.34 2 0.68 2 0 2 C0 1.34 0 0.68 0 0 Z " fill="#C7C6C6" transform="translate(683,477)"/>
<path d="M0 0 C3 1 3 1 3 1 Z " fill="#D6D7D7" transform="translate(735,477)"/>
<path d="M0 0 C3 1 3 1 3 1 Z " fill="#D0CFCF" transform="translate(671,477)"/>
<path d="M0 0 C3 1 3 1 3 1 Z " fill="#D4D4D5" transform="translate(655,477)"/>
<path d="M0 0 C3 1 3 1 3 1 Z " fill="#D9DAD9" transform="translate(639,477)"/>
<path d="M0 0 C3 1 3 1 3 1 Z " fill="#DBDADA" transform="translate(615,477)"/>
<path d="M0 0 C3 1 3 1 3 1 Z " fill="#DBDBD9" transform="translate(607,477)"/>
<path d="M0 0 C3 1 3 1 3 1 Z " fill="#F2F2F1" transform="translate(820,476)"/>
<path d="M0 0 C0.99 0.495 0.99 0.495 2 1 C1.01 1.495 1.01 1.495 0 2 C0 1.34 0 0.68 0 0 Z " fill="#F1F3F1" transform="translate(822,470)"/>
<path d="M0 0 C3 1 3 1 3 1 Z " fill="#F0F4F1" transform="translate(821,468)"/>
<path d="M0 0 C3 1 3 1 3 1 Z " fill="#F0F0F1" transform="translate(820,464)"/>
<path d="M0 0 C0.33 0.66 0.66 1.32 1 2 C0.34 1.67 -0.32 1.34 -1 1 C-0.67 0.67 -0.34 0.34 0 0 Z " fill="#E0E0E0" transform="translate(665,362)"/>
<path d="M0 0 C0.66 0 1.32 0 2 0 C1.67 0.66 1.34 1.32 1 2 C0.67 1.34 0.34 0.68 0 0 Z " fill="#D4D6D5" transform="translate(664,359)"/>
<path d="M0 0 C0.66 0.66 1.32 1.32 2 2 C1.34 2 0.68 2 0 2 C0 1.34 0 0.68 0 0 Z " fill="#D4D5D5" transform="translate(321,328)"/>
<path d="M0 0 C0.66 0 1.32 0 2 0 C1.67 0.66 1.34 1.32 1 2 C0.67 1.34 0.34 0.68 0 0 Z " fill="#D1D1D0" transform="translate(331,320)"/>
<path d="M0 0 C0.66 0 1.32 0 2 0 C1.67 0.66 1.34 1.32 1 2 C0.67 1.34 0.34 0.68 0 0 Z " fill="#D0CFD0" transform="translate(601,301)"/>
<path d="M0 0 C0.33 0.66 0.66 1.32 1 2 C0.34 1.67 -0.32 1.34 -1 1 C-0.67 0.67 -0.34 0.34 0 0 Z " fill="#D1D0D0" transform="translate(562,282)"/>
<path d="M0 0 C0.66 0 1.32 0 2 0 C1.67 0.66 1.34 1.32 1 2 C0.67 1.34 0.34 0.68 0 0 Z " fill="#D3D2D2" transform="translate(537,276)"/>
<path d="M0 0 C2 1 2 1 2 1 Z " fill="#D3D3D5" transform="translate(554,667)"/>
<path d="M0 0 C2 1 2 1 2 1 Z " fill="#D0D2D3" transform="translate(421,663)"/>
<path d="" fill="#CFCFD0" transform="translate(0,0)"/>
<path d="M0 0 C2 1 2 1 2 1 Z " fill="#D4D3D4" transform="translate(502,650)"/>
<path d="M0 0 C2 1 2 1 2 1 Z " fill="#C7C9C7" transform="translate(465,648)"/>
<path d="M0 0 C2 1 2 1 2 1 Z " fill="#D0CECD" transform="translate(604,647)"/>
<path d="" fill="#CFD0CF" transform="translate(0,0)"/>
<path d="M0 0 C2 1 2 1 2 1 Z " fill="#CECCCF" transform="translate(553,642)"/>
<path d="M0 0 C2 1 2 1 2 1 Z " fill="#C9CBCD" transform="translate(438,642)"/>
<path d="M0 0 C2 1 2 1 2 1 Z " fill="#CDCFCF" transform="translate(438,640)"/>
<path d="M0 0 C2 1 2 1 2 1 Z " fill="#C4C8C8" transform="translate(593,626)"/>
<path d="M0 0 C2 1 2 1 2 1 Z " fill="#CBC8CB" transform="translate(398,624)"/>
<path d="M0 0 C2 1 2 1 2 1 Z " fill="#CCCAC8" transform="translate(639,623)"/>
<path d="M0 0 C2 1 2 1 2 1 Z " fill="#C3C2C3" transform="translate(616,611)"/>
<path d="M0 0 C2 1 2 1 2 1 Z " fill="#C9C5C7" transform="translate(374,608)"/>
<path d="" fill="#C5C6C6" transform="translate(0,0)"/>
<path d="M0 0 C2 1 2 1 2 1 Z " fill="#C8C9C8" transform="translate(365,602)"/>
<path d="M0 0 C2 1 2 1 2 1 Z " fill="#C8C9C8" transform="translate(341,576)"/>
<path d="M0 0 C2 1 2 1 2 1 Z " fill="#D3D3D3" transform="translate(304,575)"/>
<path d="" fill="#CBCBCB" transform="translate(0,0)"/>
<path d="" fill="#CFCCCD" transform="translate(0,0)"/>
<path d="" fill="#CBCBCA" transform="translate(0,0)"/>
<path d="" fill="#CDCCCA" transform="translate(0,0)"/>
<path d="" fill="#CBCBCA" transform="translate(0,0)"/>
<path d="M0 0 C2 1 2 1 2 1 Z " fill="#CBCACB" transform="translate(281,513)"/>
<path d="" fill="#C9C9CC" transform="translate(0,0)"/>
<path d="M0 0 C2 1 2 1 2 1 Z " fill="#D2D2D1" transform="translate(667,478)"/>
<path d="M0 0 C2 1 2 1 2 1 Z " fill="#DCDBDB" transform="translate(759,477)"/>
<path d="M0 0 C2 1 2 1 2 1 Z " fill="#D3D2D2" transform="translate(663,477)"/>
<path d="M0 0 C2 1 2 1 2 1 Z " fill="#DEDDDD" transform="translate(542,477)"/>
<path d="M0 0 C2 1 2 1 2 1 Z " fill="#F3F4F3" transform="translate(488,477)"/>
<path d="" fill="#CCCDCE" transform="translate(0,0)"/>
<path d="" fill="#F1F0EF" transform="translate(0,0)"/>
<path d="" fill="#CFCECF" transform="translate(0,0)"/>
<path d="" fill="#EBEDED" transform="translate(0,0)"/>
<path d="M0 0 C2 1 2 1 2 1 Z " fill="#EDEFED" transform="translate(812,460)"/>
<path d="M0 0 C2 1 2 1 2 1 Z " fill="#E7E7E6" transform="translate(801,460)"/>
<path d="M0 0 C2 1 2 1 2 1 Z " fill="#E2E2E3" transform="translate(788,460)"/>
<path d="M0 0 C2 1 2 1 2 1 Z " fill="#CFCFD0" transform="translate(280,416)"/>
<path d="" fill="#CECCCE" transform="translate(0,0)"/>
<path d="" fill="#DFE0E0" transform="translate(0,0)"/>
<path d="" fill="#C5C4C4" transform="translate(0,0)"/>
<path d="M0 0 C2 1 2 1 2 1 Z " fill="#D7DBDA" transform="translate(676,352)"/>
<path d="" fill="#CECDCF" transform="translate(0,0)"/>
<path d="" fill="#C5C4C2" transform="translate(0,0)"/>
<path d="" fill="#D2D1D3" transform="translate(0,0)"/>
<path d="" fill="#D1D2D4" transform="translate(0,0)"/>
<path d="" fill="#C5C5C4" transform="translate(0,0)"/>
<path d="" fill="#D2D3D2" transform="translate(0,0)"/>
<path d="M0 0 C2 1 2 1 2 1 Z " fill="#D4D5D3" transform="translate(321,331)"/>
<path d="" fill="#CACBCB" transform="translate(0,0)"/>
<path d="" fill="#D0D0D0" transform="translate(0,0)"/>
<path d="" fill="#D5D5D4" transform="translate(0,0)"/>
<path d="M0 0 C2 1 2 1 2 1 Z " fill="#D6D5D2" transform="translate(637,305)"/>
<path d="M0 0 C2 1 2 1 2 1 Z " fill="#C9C9C6" transform="translate(351,304)"/>
<path d="M0 0 C2 1 2 1 2 1 Z " fill="#CBCBC8" transform="translate(593,295)"/>
<path d="" fill="#D4D3D4" transform="translate(0,0)"/>
<path d="M0 0 C2 1 2 1 2 1 Z " fill="#CDCCCB" transform="translate(423,287)"/>
<path d="M0 0 C2 1 2 1 2 1 Z " fill="#D2D0CF" transform="translate(590,274)"/>
<path d="M0 0 C2 1 2 1 2 1 Z " fill="#CDCECB" transform="translate(417,266)"/>
<path d="M0 0 C2 1 2 1 2 1 Z " fill="#D6D5D6" transform="translate(573,264)"/>
<path d="" fill="#EFF0F0" transform="translate(0,0)"/>
<path d="" fill="#F8F8F9" transform="translate(0,0)"/>
<path d="" fill="#FFFEFF" transform="translate(0,0)"/>
<path d="" fill="#D8D8DA" transform="translate(0,0)"/>
<path d="" fill="#D1D4D6" transform="translate(0,0)"/>
<path d="" fill="#D3D3D4" transform="translate(0,0)"/>
<path d="" fill="#DCDCDB" transform="translate(0,0)"/>
<path d="" fill="#D4D4D5" transform="translate(0,0)"/>
<path d="" fill="#D0D2CF" transform="translate(0,0)"/>
<path d="" fill="#DBDBDA" transform="translate(0,0)"/>
<path d="" fill="#D5D4D5" transform="translate(0,0)"/>
<path d="" fill="#CFD0D0" transform="translate(0,0)"/>
<path d="" fill="#D9D9DB" transform="translate(0,0)"/>
<path d="" fill="#DBDCDB" transform="translate(0,0)"/>
<path d="" fill="#DADADA" transform="translate(0,0)"/>
<path d="" fill="#D6D8D4" transform="translate(0,0)"/>
<path d="" fill="#D9D9D7" transform="translate(0,0)"/>
<path d="" fill="#D6D7D7" transform="translate(0,0)"/>
<path d="" fill="#DBD9DA" transform="translate(0,0)"/>
<path d="" fill="#D4D5D7" transform="translate(0,0)"/>
<path d="" fill="#D9D8D6" transform="translate(0,0)"/>
<path d="" fill="#FFFFFF" transform="translate(0,0)"/>
<path d="" fill="#D3D2D3" transform="translate(0,0)"/>
<path d="" fill="#D8D8D9" transform="translate(0,0)"/>
<path d="" fill="#D8D6D9" transform="translate(0,0)"/>
<path d="" fill="#D9D9DA" transform="translate(0,0)"/>
<path d="" fill="#D0D2D0" transform="translate(0,0)"/>
<path d="" fill="#D1CED0" transform="translate(0,0)"/>
<path d="" fill="#CDCDCA" transform="translate(0,0)"/>
<path d="" fill="#CFCECD" transform="translate(0,0)"/>
<path d="" fill="#CFD2CD" transform="translate(0,0)"/>
<path d="" fill="#CECBCC" transform="translate(0,0)"/>
<path d="" fill="#CFD0D1" transform="translate(0,0)"/>
<path d="" fill="#CCCBCD" transform="translate(0,0)"/>
<path d="" fill="#D2D4D3" transform="translate(0,0)"/>
<path d="" fill="#CCCCCC" transform="translate(0,0)"/>
<path d="" fill="#CBCBCC" transform="translate(0,0)"/>
<path d="" fill="#CDCFCE" transform="translate(0,0)"/>
<path d="" fill="#CACECB" transform="translate(0,0)"/>
<path d="" fill="#CBCDCF" transform="translate(0,0)"/>
<path d="" fill="#C8C7CA" transform="translate(0,0)"/>
<path d="" fill="#CBCDCD" transform="translate(0,0)"/>
<path d="" fill="#C8C9C9" transform="translate(0,0)"/>
<path d="" fill="#CFCFCF" transform="translate(0,0)"/>
<path d="" fill="#D3D3D1" transform="translate(0,0)"/>
<path d="" fill="#D2D0D0" transform="translate(0,0)"/>
<path d="" fill="#CCCFCC" transform="translate(0,0)"/>
<path d="" fill="#CCC9C9" transform="translate(0,0)"/>
<path d="" fill="#D1CFCF" transform="translate(0,0)"/>
<path d="" fill="#C6C6CB" transform="translate(0,0)"/>
<path d="" fill="#CAC9C8" transform="translate(0,0)"/>
<path d="" fill="#CECDCD" transform="translate(0,0)"/>
<path d="" fill="#D4D3D4" transform="translate(0,0)"/>
<path d="" fill="#D4D4D5" transform="translate(0,0)"/>
<path d="" fill="#C6C4C4" transform="translate(0,0)"/>
<path d="" fill="#CCCBCC" transform="translate(0,0)"/>
<path d="" fill="#CCCBCC" transform="translate(0,0)"/>
<path d="" fill="#CDCDCF" transform="translate(0,0)"/>
<path d="" fill="#C6C5C5" transform="translate(0,0)"/>
<path d="" fill="#CAC7CA" transform="translate(0,0)"/>
<path d="" fill="#F4F4F5" transform="translate(0,0)"/>
<path d="" fill="#CACCCC" transform="translate(0,0)"/>
<path d="" fill="#C4C4C5" transform="translate(0,0)"/>
<path d="" fill="#C7C3C5" transform="translate(0,0)"/>
<path d="" fill="#C3C1C1" transform="translate(0,0)"/>
<path d="" fill="#C8C6C8" transform="translate(0,0)"/>
<path d="" fill="#C7C7C8" transform="translate(0,0)"/>
<path d="" fill="#CBCBC9" transform="translate(0,0)"/>
<path d="" fill="#D0D1CD" transform="translate(0,0)"/>
<path d="" fill="#D4D6D4" transform="translate(0,0)"/>
<path d="" fill="#D2D3D3" transform="translate(0,0)"/>
<path d="" fill="#C7C8CA" transform="translate(0,0)"/>
<path d="" fill="#C8C8C6" transform="translate(0,0)"/>
<path d="" fill="#C6C6C6" transform="translate(0,0)"/>
<path d="" fill="#CCCDC8" transform="translate(0,0)"/>
<path d="" fill="#CACDCA" transform="translate(0,0)"/>
<path d="" fill="#CACBCC" transform="translate(0,0)"/>
<path d="" fill="#C7C5C3" transform="translate(0,0)"/>
<path d="" fill="#CFD0CF" transform="translate(0,0)"/>
<path d="" fill="#D4D2D3" transform="translate(0,0)"/>
<path d="" fill="#D1D4D2" transform="translate(0,0)"/>
<path d="" fill="#CBCBCB" transform="translate(0,0)"/>
<path d="" fill="#CACACB" transform="translate(0,0)"/>
<path d="" fill="#CCCDCC" transform="translate(0,0)"/>
<path d="" fill="#CECED1" transform="translate(0,0)"/>
<path d="" fill="#F6F7F8" transform="translate(0,0)"/>
<path d="" fill="#CACCCC" transform="translate(0,0)"/>
<path d="" fill="#FFFFFF" transform="translate(0,0)"/>
<path d="" fill="#C9CCCC" transform="translate(0,0)"/>
<path d="" fill="#CFD0CF" transform="translate(0,0)"/>
<path d="" fill="#C9CBCB" transform="translate(0,0)"/>
<path d="" fill="#C1C0BE" transform="translate(0,0)"/>
<path d="" fill="#CCCFCE" transform="translate(0,0)"/>
<path d="" fill="#C3C4C0" transform="translate(0,0)"/>
<path d="" fill="#C5C5C5" transform="translate(0,0)"/>
<path d="" fill="#CACDCA" transform="translate(0,0)"/>
<path d="" fill="#D0CFCC" transform="translate(0,0)"/>
<path d="" fill="#D7D7D8" transform="translate(0,0)"/>
<path d="" fill="#C7CECC" transform="translate(0,0)"/>
<path d="" fill="#CFCDCE" transform="translate(0,0)"/>
<path d="" fill="#C7C5C5" transform="translate(0,0)"/>
<path d="" fill="#CECDD1" transform="translate(0,0)"/>
<path d="" fill="#C8C8C7" transform="translate(0,0)"/>
<path d="" fill="#C8C8CF" transform="translate(0,0)"/>
<path d="" fill="#FCFBFC" transform="translate(0,0)"/>
<path d="" fill="#CCCCCD" transform="translate(0,0)"/>
<path d="" fill="#CFCCCC" transform="translate(0,0)"/>
<path d="" fill="#CDD0CC" transform="translate(0,0)"/>
<path d="" fill="#CAC9CB" transform="translate(0,0)"/>
<path d="" fill="#CCCBC7" transform="translate(0,0)"/>
<path d="" fill="#CDCBCB" transform="translate(0,0)"/>
<path d="" fill="#D2D4D1" transform="translate(0,0)"/>
<path d="" fill="#BFC3BE" transform="translate(0,0)"/>
<path d="" fill="#C6C3C1" transform="translate(0,0)"/>
<path d="" fill="#C8C4C6" transform="translate(0,0)"/>
<path d="" fill="#CBCACB" transform="translate(0,0)"/>
<path d="" fill="#D1CDD0" transform="translate(0,0)"/>
<path d="" fill="#C8C9C9" transform="translate(0,0)"/>
<path d="" fill="#CECECE" transform="translate(0,0)"/>
<path d="" fill="#CBCAC9" transform="translate(0,0)"/>
<path d="" fill="#CAC9C7" transform="translate(0,0)"/>
<path d="" fill="#CDCDCE" transform="translate(0,0)"/>
<path d="" fill="#D4D2D4" transform="translate(0,0)"/>
<path d="" fill="#FEFFFF" transform="translate(0,0)"/>
<path d="" fill="#CECECF" transform="translate(0,0)"/>
<path d="" fill="#C6C2C4" transform="translate(0,0)"/>
<path d="" fill="#CCCBCC" transform="translate(0,0)"/>
<path d="" fill="#D2D1CF" transform="translate(0,0)"/>
<path d="" fill="#CDCFD0" transform="translate(0,0)"/>
<path d="" fill="#CCCCCC" transform="translate(0,0)"/>
<path d="" fill="#CACCCA" transform="translate(0,0)"/>
<path d="" fill="#CCCECC" transform="translate(0,0)"/>
<path d="" fill="#C9C8C9" transform="translate(0,0)"/>
<path d="" fill="#CCCCCD" transform="translate(0,0)"/>
<path d="" fill="#CFCACB" transform="translate(0,0)"/>
<path d="" fill="#CDCCCB" transform="translate(0,0)"/>
<path d="" fill="#C3C3C0" transform="translate(0,0)"/>
<path d="" fill="#BFBFC1" transform="translate(0,0)"/>
<path d="" fill="#CACACD" transform="translate(0,0)"/>
<path d="" fill="#C1C0C0" transform="translate(0,0)"/>
<path d="" fill="#C0BEC0" transform="translate(0,0)"/>
<path d="" fill="#C0C0BF" transform="translate(0,0)"/>
<path d="" fill="#CDCACB" transform="translate(0,0)"/>
<path d="" fill="#CCCBCB" transform="translate(0,0)"/>
<path d="" fill="#CCC9C9" transform="translate(0,0)"/>
<path d="" fill="#F2F4F3" transform="translate(0,0)"/>
<path d="" fill="#F1EFEE" transform="translate(0,0)"/>
<path d="" fill="#E2E2E2" transform="translate(0,0)"/>
<path d="" fill="#E2E6E2" transform="translate(0,0)"/>
<path d="" fill="#D6D5D5" transform="translate(0,0)"/>
<path d="" fill="#C4C5C4" transform="translate(0,0)"/>
<path d="" fill="#C3C0C3" transform="translate(0,0)"/>
<path d="" fill="#DBDBD9" transform="translate(0,0)"/>
<path d="" fill="#DBDCDA" transform="translate(0,0)"/>
<path d="" fill="#DBDCDA" transform="translate(0,0)"/>
<path d="" fill="#DEDFDF" transform="translate(0,0)"/>
<path d="" fill="#E0E1DE" transform="translate(0,0)"/>
<path d="" fill="#DEDFDD" transform="translate(0,0)"/>
<path d="" fill="#DFDFDE" transform="translate(0,0)"/>
<path d="" fill="#DBDDDC" transform="translate(0,0)"/>
<path d="" fill="#D8D7D8" transform="translate(0,0)"/>
<path d="" fill="#D4D4D4" transform="translate(0,0)"/>
<path d="" fill="#CCCFCD" transform="translate(0,0)"/>
<path d="" fill="#D4D5D2" transform="translate(0,0)"/>
<path d="" fill="#D9DAD9" transform="translate(0,0)"/>
<path d="" fill="#DCDBDA" transform="translate(0,0)"/>
<path d="" fill="#DDDAD9" transform="translate(0,0)"/>
<path d="" fill="#DCDBDA" transform="translate(0,0)"/>
<path d="" fill="#DDDDDD" transform="translate(0,0)"/>
<path d="" fill="#E2DDDC" transform="translate(0,0)"/>
<path d="" fill="#E9E7E7" transform="translate(0,0)"/>
<path d="" fill="#E9EAE9" transform="translate(0,0)"/>
<path d="" fill="#DBD9DA" transform="translate(0,0)"/>
<path d="" fill="#ECE9E8" transform="translate(0,0)"/>
<path d="" fill="#CFCDCC" transform="translate(0,0)"/>
<path d="" fill="#F4F3F4" transform="translate(0,0)"/>
<path d="" fill="#CBCACC" transform="translate(0,0)"/>
<path d="" fill="#CDCDCC" transform="translate(0,0)"/>
<path d="" fill="#CFD1D1" transform="translate(0,0)"/>
<path d="" fill="#CECFCF" transform="translate(0,0)"/>
<path d="" fill="#F1EEF1" transform="translate(0,0)"/>
<path d="" fill="#F2F4F2" transform="translate(0,0)"/>
<path d="" fill="#CECDCD" transform="translate(0,0)"/>
<path d="" fill="#CFCCCE" transform="translate(0,0)"/>
<path d="" fill="#CECED0" transform="translate(0,0)"/>
<path d="" fill="#F0F0F0" transform="translate(0,0)"/>
<path d="" fill="#CCCCCC" transform="translate(0,0)"/>
<path d="" fill="#CECCCD" transform="translate(0,0)"/>
<path d="" fill="#E8E9E9" transform="translate(0,0)"/>
<path d="" fill="#E3E6E5" transform="translate(0,0)"/>
<path d="" fill="#E2E4E2" transform="translate(0,0)"/>
<path d="" fill="#E0E1E0" transform="translate(0,0)"/>
<path d="" fill="#E2DFDF" transform="translate(0,0)"/>
<path d="" fill="#DEDFDE" transform="translate(0,0)"/>
<path d="" fill="#DDDCDD" transform="translate(0,0)"/>
<path d="" fill="#DBDBD9" transform="translate(0,0)"/>
<path d="" fill="#DBDDDB" transform="translate(0,0)"/>
<path d="" fill="#D8DAD9" transform="translate(0,0)"/>
<path d="" fill="#DADADA" transform="translate(0,0)"/>
<path d="" fill="#DBD9D9" transform="translate(0,0)"/>
<path d="" fill="#DAD9DA" transform="translate(0,0)"/>
<path d="" fill="#DADCDA" transform="translate(0,0)"/>
<path d="" fill="#DCDCDD" transform="translate(0,0)"/>
<path d="" fill="#DCDDDD" transform="translate(0,0)"/>
<path d="" fill="#DDDEDC" transform="translate(0,0)"/>
<path d="" fill="#DFDEDD" transform="translate(0,0)"/>
<path d="" fill="#DCDDDD" transform="translate(0,0)"/>
<path d="" fill="#DEDEDC" transform="translate(0,0)"/>
<path d="" fill="#DEDDDD" transform="translate(0,0)"/>
<path d="" fill="#DFE1DF" transform="translate(0,0)"/>
<path d="" fill="#DFE1DF" transform="translate(0,0)"/>
<path d="" fill="#E0E2DF" transform="translate(0,0)"/>
<path d="" fill="#DFE0DE" transform="translate(0,0)"/>
<path d="" fill="#E0E1DF" transform="translate(0,0)"/>
<path d="" fill="#E1DFE0" transform="translate(0,0)"/>
<path d="" fill="#DFDEDE" transform="translate(0,0)"/>
<path d="" fill="#E1E0E0" transform="translate(0,0)"/>
<path d="" fill="#E6E8E9" transform="translate(0,0)"/>
<path d="" fill="#E9EAE9" transform="translate(0,0)"/>
<path d="" fill="#F1F1F1" transform="translate(0,0)"/>
<path d="" fill="#CECDCC" transform="translate(0,0)"/>
<path d="" fill="#CECECE" transform="translate(0,0)"/>
<path d="" fill="#F1F0F1" transform="translate(0,0)"/>
<path d="" fill="#CDCFCE" transform="translate(0,0)"/>
<path d="" fill="#D0D1CF" transform="translate(0,0)"/>
<path d="" fill="#CED0CF" transform="translate(0,0)"/>
<path d="" fill="#D1D0CF" transform="translate(0,0)"/>
<path d="" fill="#D4D3D3" transform="translate(0,0)"/>
<path d="" fill="#D1CFD0" transform="translate(0,0)"/>
<path d="" fill="#C2C1C3" transform="translate(0,0)"/>
<path d="" fill="#CDCFD2" transform="translate(0,0)"/>
<path d="" fill="#C7C5C3" transform="translate(0,0)"/>
<path d="" fill="#FCFCFD" transform="translate(0,0)"/>
<path d="" fill="#CBCDCC" transform="translate(0,0)"/>
<path d="" fill="#CACAC9" transform="translate(0,0)"/>
<path d="" fill="#CECCCB" transform="translate(0,0)"/>
<path d="" fill="#D5D2D4" transform="translate(0,0)"/>
<path d="" fill="#CECDCE" transform="translate(0,0)"/>
<path d="" fill="#D3CFD1" transform="translate(0,0)"/>
<path d="" fill="#CACBC9" transform="translate(0,0)"/>
<path d="" fill="#FFFEFF" transform="translate(0,0)"/>
<path d="" fill="#E3E5E5" transform="translate(0,0)"/>
<path d="" fill="#CBC9CA" transform="translate(0,0)"/>
<path d="" fill="#DCDBDC" transform="translate(0,0)"/>
<path d="" fill="#D1D0D0" transform="translate(0,0)"/>
<path d="" fill="#C9C8CD" transform="translate(0,0)"/>
<path d="" fill="#DDDCDC" transform="translate(0,0)"/>
<path d="" fill="#FAFAFA" transform="translate(0,0)"/>
<path d="" fill="#D2D3D1" transform="translate(0,0)"/>
<path d="" fill="#FFFFFF" transform="translate(0,0)"/>
<path d="" fill="#CDCCCE" transform="translate(0,0)"/>
<path d="" fill="#CCC8CC" transform="translate(0,0)"/>
<path d="" fill="#CBC7C9" transform="translate(0,0)"/>
<path d="" fill="#D1CFCC" transform="translate(0,0)"/>
<path d="" fill="#D2D1D0" transform="translate(0,0)"/>
<path d="" fill="#CED1D1" transform="translate(0,0)"/>
<path d="" fill="#C4C5C4" transform="translate(0,0)"/>
<path d="" fill="#FFFFFE" transform="translate(0,0)"/>
<path d="" fill="#CECFD0" transform="translate(0,0)"/>
<path d="" fill="#CECECE" transform="translate(0,0)"/>
<path d="" fill="#CAC8CA" transform="translate(0,0)"/>
<path d="" fill="#D3D2D2" transform="translate(0,0)"/>
<path d="" fill="#C3C2C0" transform="translate(0,0)"/>
<path d="" fill="#CFCECF" transform="translate(0,0)"/>
<path d="" fill="#D2D2D3" transform="translate(0,0)"/>
<path d="" fill="#FAFAFA" transform="translate(0,0)"/>
<path d="" fill="#D3D4D1" transform="translate(0,0)"/>
<path d="" fill="#D5D1D3" transform="translate(0,0)"/>
<path d="" fill="#D0D0CB" transform="translate(0,0)"/>
<path d="" fill="#D0D1D0" transform="translate(0,0)"/>
<path d="" fill="#D7D6D4" transform="translate(0,0)"/>
<path d="" fill="#CFCDCF" transform="translate(0,0)"/>
<path d="" fill="#D5D6D5" transform="translate(0,0)"/>
<path d="" fill="#D2D4D3" transform="translate(0,0)"/>
<path d="" fill="#D5D4D0" transform="translate(0,0)"/>
<path d="" fill="#D5D5D4" transform="translate(0,0)"/>
<path d="" fill="#D5D1D0" transform="translate(0,0)"/>
<path d="" fill="#CDCFCE" transform="translate(0,0)"/>
<path d="" fill="#D3D3D3" transform="translate(0,0)"/>
<path d="" fill="#CFD1D0" transform="translate(0,0)"/>
<path d="" fill="#D5D3D5" transform="translate(0,0)"/>
<path d="" fill="#D4D4D4" transform="translate(0,0)"/>
<path d="" fill="#FEFFFF" transform="translate(0,0)"/>
<path d="" fill="#D4D4D7" transform="translate(0,0)"/>
<path d="" fill="#CECDCC" transform="translate(0,0)"/>
<path d="" fill="#CFCED0" transform="translate(0,0)"/>
<path d="" fill="#CDCDCB" transform="translate(0,0)"/>
<path d="" fill="#C2C5C1" transform="translate(0,0)"/>
<path d="" fill="#CDD0CD" transform="translate(0,0)"/>
<path d="" fill="#C6C5C6" transform="translate(0,0)"/>
<path d="" fill="#CFCCCF" transform="translate(0,0)"/>
<path d="" fill="#C9C9C7" transform="translate(0,0)"/>
<path d="" fill="#C8C7C9" transform="translate(0,0)"/>
<path d="" fill="#D0D0D0" transform="translate(0,0)"/>
<path d="" fill="#CECED1" transform="translate(0,0)"/>
<path d="" fill="#D8D6D6" transform="translate(0,0)"/>
<path d="" fill="#CECDCE" transform="translate(0,0)"/>
<path d="" fill="#C9CAC9" transform="translate(0,0)"/>
<path d="" fill="#CECED0" transform="translate(0,0)"/>
<path d="" fill="#D3D3D4" transform="translate(0,0)"/>
<path d="" fill="#D6D8D7" transform="translate(0,0)"/>
<path d="" fill="#D0D6D0" transform="translate(0,0)"/>
<path d="" fill="#D3D4D4" transform="translate(0,0)"/>
<path d="" fill="#CAC8C8" transform="translate(0,0)"/>
<path d="" fill="#CCCBCB" transform="translate(0,0)"/>
<path d="" fill="#D1D0CD" transform="translate(0,0)"/>
<path d="" fill="#CECCCA" transform="translate(0,0)"/>
<path d="" fill="#C9CFCD" transform="translate(0,0)"/>
<path d="" fill="#D1D0D2" transform="translate(0,0)"/>
<path d="" fill="#D4D3D0" transform="translate(0,0)"/>
<path d="" fill="#CBC9C7" transform="translate(0,0)"/>
<path d="" fill="#D1D2CE" transform="translate(0,0)"/>
<path d="" fill="#D0D0D4" transform="translate(0,0)"/>
<path d="" fill="#CDCCCC" transform="translate(0,0)"/>
<path d="" fill="#CBCBCA" transform="translate(0,0)"/>
<path d="" fill="#CFCFD0" transform="translate(0,0)"/>
<path d="" fill="#D1D2D1" transform="translate(0,0)"/>
<path d="" fill="#D5D3D6" transform="translate(0,0)"/>
<path d="" fill="#D7D8D9" transform="translate(0,0)"/>
<path d="" fill="#D1D2CF" transform="translate(0,0)"/>
<path d="" fill="#D1D2D0" transform="translate(0,0)"/>
<path d="" fill="#D0D0D1" transform="translate(0,0)"/>
<path d="" fill="#CFCFD1" transform="translate(0,0)"/>
<path d="" fill="#D1D4D3" transform="translate(0,0)"/>
<path d="" fill="#D1CDD1" transform="translate(0,0)"/>
<path d="" fill="#D3D5D7" transform="translate(0,0)"/>
<path d="" fill="#D7D5D3" transform="translate(0,0)"/>
<path d="" fill="#D6D8D5" transform="translate(0,0)"/>
<path d="" fill="#D0D3D2" transform="translate(0,0)"/>
<path d="" fill="#CCCBCD" transform="translate(0,0)"/>
<path d="" fill="#D1D1D0" transform="translate(0,0)"/>
<path d="" fill="#D3D1D2" transform="translate(0,0)"/>
<path d="" fill="#D8D6D8" transform="translate(0,0)"/>
<path d="" fill="#D3CFD0" transform="translate(0,0)"/>
<path d="" fill="#D3D2D2" transform="translate(0,0)"/>
<path d="" fill="#D5D5D7" transform="translate(0,0)"/>
<path d="" fill="#D1D0D1" transform="translate(0,0)"/>
<path d="" fill="#CACBCB" transform="translate(0,0)"/>
<path d="" fill="#D8D8DA" transform="translate(0,0)"/>
<path d="" fill="#CBC9CA" transform="translate(0,0)"/>
<path d="" fill="#D5D4D4" transform="translate(0,0)"/>
<path d="" fill="#D0D2D3" transform="translate(0,0)"/>
<path d="" fill="#C9CBCC" transform="translate(0,0)"/>
<path d="" fill="#D5D4D4" transform="translate(0,0)"/>
<path d="" fill="#CBCCCF" transform="translate(0,0)"/>
<path d="" fill="#D5D4D3" transform="translate(0,0)"/>
<path d="" fill="#D4D3D4" transform="translate(0,0)"/>
<path d="" fill="#D0D0CF" transform="translate(0,0)"/>
<path d="" fill="#D4D3D1" transform="translate(0,0)"/>
<path d="" fill="#CCC9C5" transform="translate(0,0)"/>
<path d="" fill="#D5D6D8" transform="translate(0,0)"/>
<path d="" fill="#D5D3D4" transform="translate(0,0)"/>
<path d="" fill="#D3D3D2" transform="translate(0,0)"/>
<path d="" fill="#D4D4D3" transform="translate(0,0)"/>
<path d="" fill="#D8D7D4" transform="translate(0,0)"/>
<path d="" fill="#FFFFFF" transform="translate(0,0)"/>
</svg>
